ISO-10303-21;
HEADER;
FILE_DESCRIPTION(('CATIA V5 STEP Exchange'),'2;1');

FILE_NAME('C:\\Users\\userr\\Desktop\\WORK\\ELQUATOR\\PMG\\PMG (Si)\\PMG(Si).stp','2021-03-23T05:01:00+00:00',('none'),('none'),'CATIA Version 5 Release 19 GA (IN-10)','CATIA V5 STEP AP203','none');

FILE_SCHEMA(('CONFIG_CONTROL_DESIGN'));

ENDSEC;
/* file written by CATIA V5R19 */
DATA;
#5=PRODUCT('PMG(Si).Bearing ID 10','','',(#2)) ;
#1=APPLICATION_CONTEXT('configuration controlled 3D design of mechanical parts and assemblies') ;
#14=PRODUCT_DEFINITION('',' ',#6,#3) ;
#16=SECURITY_CLASSIFICATION(' ',' ',#15) ;
#15=SECURITY_CLASSIFICATION_LEVEL('unclassified') ;
#47=CARTESIAN_POINT(' ',(0.,0.,0.)) ;
#52=CARTESIAN_POINT('Axis2P3D Location',(0.,0.,8.)) ;
#57=CARTESIAN_POINT('Axis2P3D Location',(0.,0.,8.)) ;
#61=CARTESIAN_POINT('Vertex',(1.40406162397E-015,-2.57011756321E-015,5.5)) ;
#63=CARTESIAN_POINT('Vertex',(7.33884450949E-017,-1.34336647662E-016,10.5)) ;
#66=CARTESIAN_POINT('Axis2P3D Location',(0.,0.,8.)) ;
#85=CARTESIAN_POINT('Axis2P3D Location',(5.65685424949,0.,5.65685424949)) ;
#90=CARTESIAN_POINT('Axis2P3D Location',(5.65685424949,0.,5.65685424949)) ;
#94=CARTESIAN_POINT('Vertex',(3.88908729653,-2.57011756321E-015,3.88908729653)) ;
#96=CARTESIAN_POINT('Vertex',(7.42462120246,1.34336647662E-016,7.42462120246)) ;
#99=CARTESIAN_POINT('Axis2P3D Location',(5.65685424949,0.,5.65685424949)) ;
#116=CARTESIAN_POINT('Axis2P3D Location',(8.,0.,-3.98319700041E-016)) ;
#121=CARTESIAN_POINT('Axis2P3D Location',(8.,0.,-3.98319700041E-016)) ;
#125=CARTESIAN_POINT('Vertex',(5.5,-2.57011756321E-015,-1.95546217391E-015)) ;
#127=CARTESIAN_POINT('Vertex',(10.5,1.34336647662E-016,-1.71850405053E-016)) ;
#130=CARTESIAN_POINT('Axis2P3D Location',(8.,0.,-3.98319700041E-016)) ;
#147=CARTESIAN_POINT('Axis2P3D Location',(5.65685424949,0.,-5.65685424949)) ;
#152=CARTESIAN_POINT('Axis2P3D Location',(5.65685424949,0.,-5.65685424949)) ;
#156=CARTESIAN_POINT('Vertex',(3.88908729653,-2.57011756321E-015,-3.88908729653)) ;
#158=CARTESIAN_POINT('Vertex',(7.42462120246,1.34336647662E-016,-7.42462120246)) ;
#161=CARTESIAN_POINT('Axis2P3D Location',(5.65685424949,0.,-5.65685424949)) ;
#178=CARTESIAN_POINT('Axis2P3D Location',(9.79717439318E-016,0.,-8.)) ;
#183=CARTESIAN_POINT('Axis2P3D Location',(9.79717439318E-016,0.,-8.)) ;
#187=CARTESIAN_POINT('Vertex',(-7.30505884443E-016,-2.57011756321E-015,-5.5)) ;
#189=CARTESIAN_POINT('Vertex',(1.3592675842E-015,1.34336647662E-016,-10.5)) ;
#192=CARTESIAN_POINT('Axis2P3D Location',(9.79717439318E-016,0.,-8.)) ;
#209=CARTESIAN_POINT('Axis2P3D Location',(-5.65685424949,0.,-5.65685424949)) ;
#214=CARTESIAN_POINT('Axis2P3D Location',(-5.65685424949,0.,-5.65685424949)) ;
#218=CARTESIAN_POINT('Vertex',(-3.88908729653,-2.57011756321E-015,-3.88908729653)) ;
#220=CARTESIAN_POINT('Vertex',(-7.42462120246,1.34336647662E-016,-7.42462120246)) ;
#223=CARTESIAN_POINT('Axis2P3D Location',(-5.65685424949,0.,-5.65685424949)) ;
#240=CARTESIAN_POINT('Axis2P3D Location',(-8.,0.,-1.46957615898E-015)) ;
#245=CARTESIAN_POINT('Axis2P3D Location',(-8.,0.,-1.46957615898E-015)) ;
#249=CARTESIAN_POINT('Vertex',(-5.5,-2.57011756321E-015,3.93728014678E-016)) ;
#251=CARTESIAN_POINT('Vertex',(-10.5,1.34336647662E-016,-2.00220715375E-015)) ;
#254=CARTESIAN_POINT('Axis2P3D Location',(-8.,0.,-1.46957615898E-015)) ;
#271=CARTESIAN_POINT('Axis2P3D Location',(0.,-0.660939569412,0.)) ;
#276=CARTESIAN_POINT('Axis2P3D Location',(0.,-4.,0.)) ;
#280=CARTESIAN_POINT('Vertex',(5.,-4.,6.12303176911E-016)) ;
#282=CARTESIAN_POINT('Vertex',(-5.,-4.,0.)) ;
#285=CARTESIAN_POINT('Line Origine',(5.,-0.660939569412,6.12303176911E-016)) ;
#289=CARTESIAN_POINT('Vertex',(5.,4.,-3.82858892159E-015)) ;
#292=CARTESIAN_POINT('Axis2P3D Location',(0.,4.,0.)) ;
#296=CARTESIAN_POINT('Vertex',(-5.,4.,0.)) ;
#299=CARTESIAN_POINT('Line Origine',(-5.,-0.660939569412,-1.22460635382E-015)) ;
#311=CARTESIAN_POINT('Axis2P3D Location',(0.,-4.,0.)) ;
#316=CARTESIAN_POINT('Axis2P3D Location',(0.,4.,0.)) ;
#328=CARTESIAN_POINT('Axis2P3D Location',(0.,4.,6.9891335294)) ;
#333=CARTESIAN_POINT('Axis2P3D Location',(0.,4.,0.)) ;
#337=CARTESIAN_POINT('Vertex',(-3.35076910671,4.,-6.13354170812)) ;
#339=CARTESIAN_POINT('Vertex',(3.35076910671,4.,6.13354170812)) ;
#342=CARTESIAN_POINT('Axis2P3D Location',(0.,4.,0.)) ;
#356=CARTESIAN_POINT('Axis2P3D Location',(0.,-4.,0.)) ;
#361=CARTESIAN_POINT('Axis2P3D Location',(0.,-4.,0.)) ;
#365=CARTESIAN_POINT('Vertex',(-3.35076910671,-4.,-6.13354170812)) ;
#367=CARTESIAN_POINT('Vertex',(3.35076910671,-4.,6.13354170812)) ;
#370=CARTESIAN_POINT('Axis2P3D Location',(0.,-4.,0.)) ;
#384=CARTESIAN_POINT('Axis2P3D Location',(0.,0.,0.)) ;
#389=CARTESIAN_POINT('Line Origine',(-3.35076910671,0.,-6.13354170812)) ;
#393=CARTESIAN_POINT('Vertex',(-3.35076910671,2.28651459182,-6.13354170812)) ;
#396=CARTESIAN_POINT('Line Origine',(3.35076910671,0.,6.13354170812)) ;
#400=CARTESIAN_POINT('Vertex',(3.35076910671,2.28651459182,6.13354170812)) ;
#403=CARTESIAN_POINT('Axis2P3D Location',(0.,2.28651459182,0.)) ;
#415=CARTESIAN_POINT('Line Origine',(-3.35076910671,0.,-6.13354170812)) ;
#419=CARTESIAN_POINT('Vertex',(-3.35076910671,-2.28651459182,-6.13354170812)) ;
#422=CARTESIAN_POINT('Axis2P3D Location',(0.,-2.28651459182,0.)) ;
#426=CARTESIAN_POINT('Vertex',(3.35076910671,-2.28651459182,6.13354170812)) ;
#429=CARTESIAN_POINT('Line Origine',(3.35076910671,0.,6.13354170812)) ;
#441=CARTESIAN_POINT('Axis2P3D Location',(0.,0.,0.)) ;
#446=CARTESIAN_POINT('Axis2P3D Location',(3.83540430883,0.,7.02066049512)) ;
#451=CARTESIAN_POINT('Axis2P3D Location',(-3.83540430883,0.,-7.02066049512)) ;
#463=CARTESIAN_POINT('Axis2P3D Location',(0.,2.28651459182,0.)) ;
#475=CARTESIAN_POINT('Axis2P3D Location',(0.,-2.28651459182,0.)) ;
#496=CARTESIAN_POINT('Axis2P3D Location',(0.,0.,0.)) ;
#501=CARTESIAN_POINT('Line Origine',(-6.23253200185,8.881784197E-016,-11.4085733046)) ;
#505=CARTESIAN_POINT('Vertex',(-6.23253200185,-4.,-11.4085733046)) ;
#507=CARTESIAN_POINT('Vertex',(-6.23253200185,4.,-11.4085733046)) ;
#510=CARTESIAN_POINT('Axis2P3D Location',(0.,4.,0.)) ;
#514=CARTESIAN_POINT('Vertex',(6.23253200185,4.,11.4085733046)) ;
#517=CARTESIAN_POINT('Line Origine',(6.23253200185,8.881784197E-016,11.4085733046)) ;
#521=CARTESIAN_POINT('Vertex',(6.23253200185,-4.,11.4085733046)) ;
#524=CARTESIAN_POINT('Axis2P3D Location',(0.,-4.,0.)) ;
#536=CARTESIAN_POINT('Axis2P3D Location',(0.,4.,0.)) ;
#541=CARTESIAN_POINT('Axis2P3D Location',(0.,-4.,0.)) ;
#557=CARTESIAN_POINT('Axis2P3D Location',(0.,-4.,0.)) ;
#561=CARTESIAN_POINT('Vertex',(-4.43558980423,-4.,-8.11929267519)) ;
#563=CARTESIAN_POINT('Vertex',(4.43558980423,-4.,8.11929267519)) ;
#566=CARTESIAN_POINT('Axis2P3D Location',(0.,-4.,0.)) ;
#580=CARTESIAN_POINT('Axis2P3D Location',(0.,4.,0.)) ;
#584=CARTESIAN_POINT('Vertex',(4.43558980423,4.,8.11929267519)) ;
#586=CARTESIAN_POINT('Vertex',(-4.43558980423,4.,-8.11929267519)) ;
#589=CARTESIAN_POINT('Axis2P3D Location',(0.,4.,0.)) ;
#599=CARTESIAN_POINT('Axis2P3D Location',(0.,0.,0.)) ;
#604=CARTESIAN_POINT('Line Origine',(-4.43558980423,-4.4408920985E-016,-8.11929267519)) ;
#608=CARTESIAN_POINT('Vertex',(-4.43558980423,-2.16397428451,-8.11929267519)) ;
#611=CARTESIAN_POINT('Line Origine',(4.43558980423,-4.4408920985E-016,8.11929267519)) ;
#615=CARTESIAN_POINT('Vertex',(4.43558980423,-2.16397428451,8.11929267519)) ;
#618=CARTESIAN_POINT('Axis2P3D Location',(0.,-2.16397428451,0.)) ;
#630=CARTESIAN_POINT('Line Origine',(-4.43558980423,-4.4408920985E-016,-8.11929267519)) ;
#634=CARTESIAN_POINT('Vertex',(-4.43558980423,2.16397428451,-8.11929267519)) ;
#637=CARTESIAN_POINT('Axis2P3D Location',(0.,2.16397428451,0.)) ;
#641=CARTESIAN_POINT('Vertex',(4.43558980423,2.16397428451,8.11929267519)) ;
#644=CARTESIAN_POINT('Line Origine',(4.43558980423,-4.4408920985E-016,8.11929267519)) ;
#656=CARTESIAN_POINT('Axis2P3D Location',(0.,0.,0.)) ;
#661=CARTESIAN_POINT('Axis2P3D Location',(-3.83540430883,0.,-7.02066049512)) ;
#666=CARTESIAN_POINT('Axis2P3D Location',(3.83540430883,0.,7.02066049512)) ;
#678=CARTESIAN_POINT('Axis2P3D Location',(0.,-2.16397428451,0.)) ;
#690=CARTESIAN_POINT('Axis2P3D Location',(0.,2.16397428451,0.)) ;
#711=CARTESIAN_POINT('Axis2P3D Location',(-5.65685424949,0.,5.65685424949)) ;
#716=CARTESIAN_POINT('Axis2P3D Location',(-5.65685424949,0.,5.65685424949)) ;
#720=CARTESIAN_POINT('Vertex',(-3.88908729653,-2.57011756321E-015,3.88908729653)) ;
#722=CARTESIAN_POINT('Vertex',(-7.42462120246,1.34336647662E-016,7.42462120246)) ;
#725=CARTESIAN_POINT('Axis2P3D Location',(-5.65685424949,0.,5.65685424949)) ;
#53=DIRECTION('Axis2P3D Direction',(0.,0.,1.)) ;
#54=DIRECTION('Axis2P3D XDirection',(-0.479425538604,0.87758256189,0.)) ;
#58=DIRECTION('Axis2P3D Direction',(-0.87758256189,-0.479425538604,0.)) ;
#67=DIRECTION('Axis2P3D Direction',(0.87758256189,0.479425538604,-0.)) ;
#86=DIRECTION('Axis2P3D Direction',(0.707106781187,-0.,0.707106781187)) ;
#87=DIRECTION('Axis2P3D XDirection',(-0.339005049421,0.87758256189,0.339005049421)) ;
#91=DIRECTION('Axis2P3D Direction',(-0.620544580564,-0.479425538604,0.620544580564)) ;
#100=DIRECTION('Axis2P3D Direction',(0.620544580564,0.479425538604,-0.620544580564)) ;
#117=DIRECTION('Axis2P3D Direction',(1.,-0.,6.12323399574E-017)) ;
#118=DIRECTION('Axis2P3D XDirection',(0.,0.87758256189,0.479425538604)) ;
#122=DIRECTION('Axis2P3D Direction',(-5.37364337703E-017,-0.479425538604,0.87758256189)) ;
#131=DIRECTION('Axis2P3D Direction',(5.37364337703E-017,0.479425538604,-0.87758256189)) ;
#148=DIRECTION('Axis2P3D Direction',(0.707106781187,0.,-0.707106781187)) ;
#149=DIRECTION('Axis2P3D XDirection',(0.339005049421,0.87758256189,0.339005049421)) ;
#153=DIRECTION('Axis2P3D Direction',(0.620544580564,-0.479425538604,0.620544580564)) ;
#162=DIRECTION('Axis2P3D Direction',(-0.620544580564,0.479425538604,-0.620544580564)) ;
#179=DIRECTION('Axis2P3D Direction',(1.22464679915E-016,0.,-1.)) ;
#180=DIRECTION('Axis2P3D XDirection',(0.479425538604,0.87758256189,0.)) ;
#184=DIRECTION('Axis2P3D Direction',(0.87758256189,-0.479425538604,1.07472867541E-016)) ;
#193=DIRECTION('Axis2P3D Direction',(-0.87758256189,0.479425538604,-1.07472867541E-016)) ;
#210=DIRECTION('Axis2P3D Direction',(-0.707106781187,0.,-0.707106781187)) ;
#211=DIRECTION('Axis2P3D XDirection',(0.339005049421,0.87758256189,-0.339005049421)) ;
#215=DIRECTION('Axis2P3D Direction',(0.620544580564,-0.479425538604,-0.620544580564)) ;
#224=DIRECTION('Axis2P3D Direction',(-0.620544580564,0.479425538604,0.620544580564)) ;
#241=DIRECTION('Axis2P3D Direction',(-1.,0.,-1.83697019872E-016)) ;
#242=DIRECTION('Axis2P3D XDirection',(0.,0.87758256189,-0.479425538604)) ;
#246=DIRECTION('Axis2P3D Direction',(1.61209301311E-016,-0.479425538604,-0.87758256189)) ;
#255=DIRECTION('Axis2P3D Direction',(-1.61209301311E-016,0.479425538604,0.87758256189)) ;
#272=DIRECTION('Axis2P3D Direction',(0.,1.,0.)) ;
#273=DIRECTION('Axis2P3D XDirection',(-1.,0.,0.)) ;
#277=DIRECTION('Axis2P3D Direction',(0.,1.,0.)) ;
#286=DIRECTION('Vector Direction',(0.,1.,0.)) ;
#293=DIRECTION('Axis2P3D Direction',(0.,1.,0.)) ;
#300=DIRECTION('Vector Direction',(0.,1.,0.)) ;
#312=DIRECTION('Axis2P3D Direction',(0.,1.,0.)) ;
#317=DIRECTION('Axis2P3D Direction',(0.,1.,0.)) ;
#329=DIRECTION('Axis2P3D Direction',(-0.,1.,0.)) ;
#330=DIRECTION('Axis2P3D XDirection',(1.,0.,0.)) ;
#334=DIRECTION('Axis2P3D Direction',(-0.,1.,0.)) ;
#343=DIRECTION('Axis2P3D Direction',(-0.,1.,0.)) ;
#357=DIRECTION('Axis2P3D Direction',(-0.,1.,0.)) ;
#358=DIRECTION('Axis2P3D XDirection',(1.,0.,0.)) ;
#362=DIRECTION('Axis2P3D Direction',(-0.,1.,0.)) ;
#371=DIRECTION('Axis2P3D Direction',(-0.,1.,0.)) ;
#385=DIRECTION('Axis2P3D Direction',(0.,1.,0.)) ;
#386=DIRECTION('Axis2P3D XDirection',(0.479425538604,-0.,0.87758256189)) ;
#390=DIRECTION('Vector Direction',(0.,1.,0.)) ;
#397=DIRECTION('Vector Direction',(0.,1.,0.)) ;
#404=DIRECTION('Axis2P3D Direction',(0.,1.,0.)) ;
#416=DIRECTION('Vector Direction',(0.,1.,0.)) ;
#423=DIRECTION('Axis2P3D Direction',(0.,1.,0.)) ;
#430=DIRECTION('Vector Direction',(0.,1.,0.)) ;
#442=DIRECTION('Axis2P3D Direction',(0.,1.,0.)) ;
#443=DIRECTION('Axis2P3D XDirection',(0.479425538604,0.,0.87758256189)) ;
#447=DIRECTION('Axis2P3D Direction',(-0.87758256189,0.,0.479425538604)) ;
#452=DIRECTION('Axis2P3D Direction',(0.87758256189,0.,-0.479425538604)) ;
#464=DIRECTION('Axis2P3D Direction',(0.,1.,0.)) ;
#476=DIRECTION('Axis2P3D Direction',(0.,1.,0.)) ;
#497=DIRECTION('Axis2P3D Direction',(0.,1.,0.)) ;
#498=DIRECTION('Axis2P3D XDirection',(0.479425538604,-0.,0.87758256189)) ;
#502=DIRECTION('Vector Direction',(0.,1.,0.)) ;
#511=DIRECTION('Axis2P3D Direction',(0.,1.,0.)) ;
#518=DIRECTION('Vector Direction',(0.,1.,0.)) ;
#525=DIRECTION('Axis2P3D Direction',(0.,1.,0.)) ;
#537=DIRECTION('Axis2P3D Direction',(0.,1.,0.)) ;
#542=DIRECTION('Axis2P3D Direction',(0.,1.,0.)) ;
#558=DIRECTION('Axis2P3D Direction',(-0.,1.,0.)) ;
#567=DIRECTION('Axis2P3D Direction',(-0.,1.,0.)) ;
#581=DIRECTION('Axis2P3D Direction',(-0.,1.,0.)) ;
#590=DIRECTION('Axis2P3D Direction',(-0.,1.,0.)) ;
#600=DIRECTION('Axis2P3D Direction',(0.,1.,0.)) ;
#601=DIRECTION('Axis2P3D XDirection',(0.479425538604,-0.,0.87758256189)) ;
#605=DIRECTION('Vector Direction',(0.,1.,0.)) ;
#612=DIRECTION('Vector Direction',(0.,1.,0.)) ;
#619=DIRECTION('Axis2P3D Direction',(0.,1.,0.)) ;
#631=DIRECTION('Vector Direction',(0.,1.,0.)) ;
#638=DIRECTION('Axis2P3D Direction',(0.,1.,0.)) ;
#645=DIRECTION('Vector Direction',(0.,1.,0.)) ;
#657=DIRECTION('Axis2P3D Direction',(0.,1.,0.)) ;
#658=DIRECTION('Axis2P3D XDirection',(0.479425538604,0.,0.87758256189)) ;
#662=DIRECTION('Axis2P3D Direction',(0.87758256189,0.,-0.479425538604)) ;
#667=DIRECTION('Axis2P3D Direction',(-0.87758256189,0.,0.479425538604)) ;
#679=DIRECTION('Axis2P3D Direction',(0.,1.,0.)) ;
#691=DIRECTION('Axis2P3D Direction',(0.,1.,0.)) ;
#712=DIRECTION('Axis2P3D Direction',(-0.707106781187,0.,0.707106781187)) ;
#713=DIRECTION('Axis2P3D XDirection',(-0.339005049421,0.87758256189,-0.339005049421)) ;
#717=DIRECTION('Axis2P3D Direction',(-0.620544580564,-0.479425538604,-0.620544580564)) ;
#726=DIRECTION('Axis2P3D Direction',(0.620544580564,0.479425538604,0.620544580564)) ;
#48=AXIS2_PLACEMENT_3D(' ',#47,$,$) ;
#55=AXIS2_PLACEMENT_3D('Sphere Axis2P3D',#52,#53,#54) ;
#59=AXIS2_PLACEMENT_3D('Circle Axis2P3D',#57,#58,$) ;
#68=AXIS2_PLACEMENT_3D('Circle Axis2P3D',#66,#67,$) ;
#88=AXIS2_PLACEMENT_3D('Sphere Axis2P3D',#85,#86,#87) ;
#92=AXIS2_PLACEMENT_3D('Circle Axis2P3D',#90,#91,$) ;
#101=AXIS2_PLACEMENT_3D('Circle Axis2P3D',#99,#100,$) ;
#119=AXIS2_PLACEMENT_3D('Sphere Axis2P3D',#116,#117,#118) ;
#123=AXIS2_PLACEMENT_3D('Circle Axis2P3D',#121,#122,$) ;
#132=AXIS2_PLACEMENT_3D('Circle Axis2P3D',#130,#131,$) ;
#150=AXIS2_PLACEMENT_3D('Sphere Axis2P3D',#147,#148,#149) ;
#154=AXIS2_PLACEMENT_3D('Circle Axis2P3D',#152,#153,$) ;
#163=AXIS2_PLACEMENT_3D('Circle Axis2P3D',#161,#162,$) ;
#181=AXIS2_PLACEMENT_3D('Sphere Axis2P3D',#178,#179,#180) ;
#185=AXIS2_PLACEMENT_3D('Circle Axis2P3D',#183,#184,$) ;
#194=AXIS2_PLACEMENT_3D('Circle Axis2P3D',#192,#193,$) ;
#212=AXIS2_PLACEMENT_3D('Sphere Axis2P3D',#209,#210,#211) ;
#216=AXIS2_PLACEMENT_3D('Circle Axis2P3D',#214,#215,$) ;
#225=AXIS2_PLACEMENT_3D('Circle Axis2P3D',#223,#224,$) ;
#243=AXIS2_PLACEMENT_3D('Sphere Axis2P3D',#240,#241,#242) ;
#247=AXIS2_PLACEMENT_3D('Circle Axis2P3D',#245,#246,$) ;
#256=AXIS2_PLACEMENT_3D('Circle Axis2P3D',#254,#255,$) ;
#274=AXIS2_PLACEMENT_3D('Cylinder Axis2P3D',#271,#272,#273) ;
#278=AXIS2_PLACEMENT_3D('Circle Axis2P3D',#276,#277,$) ;
#294=AXIS2_PLACEMENT_3D('Circle Axis2P3D',#292,#293,$) ;
#313=AXIS2_PLACEMENT_3D('Circle Axis2P3D',#311,#312,$) ;
#318=AXIS2_PLACEMENT_3D('Circle Axis2P3D',#316,#317,$) ;
#331=AXIS2_PLACEMENT_3D('Plane Axis2P3D',#328,#329,#330) ;
#335=AXIS2_PLACEMENT_3D('Circle Axis2P3D',#333,#334,$) ;
#344=AXIS2_PLACEMENT_3D('Circle Axis2P3D',#342,#343,$) ;
#359=AXIS2_PLACEMENT_3D('Plane Axis2P3D',#356,#357,#358) ;
#363=AXIS2_PLACEMENT_3D('Circle Axis2P3D',#361,#362,$) ;
#372=AXIS2_PLACEMENT_3D('Circle Axis2P3D',#370,#371,$) ;
#387=AXIS2_PLACEMENT_3D('Cylinder Axis2P3D',#384,#385,#386) ;
#405=AXIS2_PLACEMENT_3D('Circle Axis2P3D',#403,#404,$) ;
#424=AXIS2_PLACEMENT_3D('Circle Axis2P3D',#422,#423,$) ;
#444=AXIS2_PLACEMENT_3D('Torus Axis2P3D',#441,#442,#443) ;
#448=AXIS2_PLACEMENT_3D('Circle Axis2P3D',#446,#447,$) ;
#453=AXIS2_PLACEMENT_3D('Circle Axis2P3D',#451,#452,$) ;
#465=AXIS2_PLACEMENT_3D('Circle Axis2P3D',#463,#464,$) ;
#477=AXIS2_PLACEMENT_3D('Circle Axis2P3D',#475,#476,$) ;
#499=AXIS2_PLACEMENT_3D('Cylinder Axis2P3D',#496,#497,#498) ;
#512=AXIS2_PLACEMENT_3D('Circle Axis2P3D',#510,#511,$) ;
#526=AXIS2_PLACEMENT_3D('Circle Axis2P3D',#524,#525,$) ;
#538=AXIS2_PLACEMENT_3D('Circle Axis2P3D',#536,#537,$) ;
#543=AXIS2_PLACEMENT_3D('Circle Axis2P3D',#541,#542,$) ;
#559=AXIS2_PLACEMENT_3D('Circle Axis2P3D',#557,#558,$) ;
#568=AXIS2_PLACEMENT_3D('Circle Axis2P3D',#566,#567,$) ;
#582=AXIS2_PLACEMENT_3D('Circle Axis2P3D',#580,#581,$) ;
#591=AXIS2_PLACEMENT_3D('Circle Axis2P3D',#589,#590,$) ;
#602=AXIS2_PLACEMENT_3D('Cylinder Axis2P3D',#599,#600,#601) ;
#620=AXIS2_PLACEMENT_3D('Circle Axis2P3D',#618,#619,$) ;
#639=AXIS2_PLACEMENT_3D('Circle Axis2P3D',#637,#638,$) ;
#659=AXIS2_PLACEMENT_3D('Torus Axis2P3D',#656,#657,#658) ;
#663=AXIS2_PLACEMENT_3D('Circle Axis2P3D',#661,#662,$) ;
#668=AXIS2_PLACEMENT_3D('Circle Axis2P3D',#666,#667,$) ;
#680=AXIS2_PLACEMENT_3D('Circle Axis2P3D',#678,#679,$) ;
#692=AXIS2_PLACEMENT_3D('Circle Axis2P3D',#690,#691,$) ;
#714=AXIS2_PLACEMENT_3D('Sphere Axis2P3D',#711,#712,#713) ;
#718=AXIS2_PLACEMENT_3D('Circle Axis2P3D',#716,#717,$) ;
#727=AXIS2_PLACEMENT_3D('Circle Axis2P3D',#725,#726,$) ;
#40=PRODUCT_DEFINITION_SHAPE(' ',' ',#14) ;
#31=APPROVAL_PERSON_ORGANIZATION(#25,#21,#19) ;
#25=PERSON_AND_ORGANIZATION(#22,#23) ;
#22=PERSON(' ',' ',' ',$,$,$) ;
#23=ORGANIZATION(' ',' ',' ') ;
#21=APPROVAL(#20,' ') ;
#20=APPROVAL_STATUS('not_yet_approved') ;
#19=APPROVAL_ROLE('APPROVER') ;
#13=DATE_AND_TIME(#11,#12) ;
#12=LOCAL_TIME(13,0,58.,#10) ;
#10=COORDINATED_UNIVERSAL_TIME_OFFSET(0,0,.AHEAD.) ;
#72=ORIENTED_EDGE('',*,*,#65,.F.) ;
#73=ORIENTED_EDGE('',*,*,#70,.T.) ;
#77=ORIENTED_EDGE('',*,*,#70,.F.) ;
#78=ORIENTED_EDGE('',*,*,#65,.T.) ;
#105=ORIENTED_EDGE('',*,*,#98,.T.) ;
#106=ORIENTED_EDGE('',*,*,#103,.F.) ;
#110=ORIENTED_EDGE('',*,*,#103,.T.) ;
#111=ORIENTED_EDGE('',*,*,#98,.F.) ;
#136=ORIENTED_EDGE('',*,*,#129,.T.) ;
#137=ORIENTED_EDGE('',*,*,#134,.F.) ;
#141=ORIENTED_EDGE('',*,*,#134,.T.) ;
#142=ORIENTED_EDGE('',*,*,#129,.F.) ;
#167=ORIENTED_EDGE('',*,*,#160,.T.) ;
#168=ORIENTED_EDGE('',*,*,#165,.F.) ;
#172=ORIENTED_EDGE('',*,*,#165,.T.) ;
#173=ORIENTED_EDGE('',*,*,#160,.F.) ;
#198=ORIENTED_EDGE('',*,*,#191,.T.) ;
#199=ORIENTED_EDGE('',*,*,#196,.F.) ;
#203=ORIENTED_EDGE('',*,*,#196,.T.) ;
#204=ORIENTED_EDGE('',*,*,#191,.F.) ;
#229=ORIENTED_EDGE('',*,*,#222,.T.) ;
#230=ORIENTED_EDGE('',*,*,#227,.F.) ;
#234=ORIENTED_EDGE('',*,*,#227,.T.) ;
#235=ORIENTED_EDGE('',*,*,#222,.F.) ;
#260=ORIENTED_EDGE('',*,*,#253,.T.) ;
#261=ORIENTED_EDGE('',*,*,#258,.F.) ;
#265=ORIENTED_EDGE('',*,*,#258,.T.) ;
#266=ORIENTED_EDGE('',*,*,#253,.F.) ;
#305=ORIENTED_EDGE('',*,*,#284,.F.) ;
#306=ORIENTED_EDGE('',*,*,#291,.F.) ;
#307=ORIENTED_EDGE('',*,*,#298,.T.) ;
#308=ORIENTED_EDGE('',*,*,#303,.T.) ;
#322=ORIENTED_EDGE('',*,*,#315,.F.) ;
#323=ORIENTED_EDGE('',*,*,#303,.F.) ;
#324=ORIENTED_EDGE('',*,*,#320,.T.) ;
#325=ORIENTED_EDGE('',*,*,#291,.T.) ;
#348=ORIENTED_EDGE('',*,*,#341,.T.) ;
#349=ORIENTED_EDGE('',*,*,#346,.T.) ;
#352=ORIENTED_EDGE('',*,*,#320,.F.) ;
#353=ORIENTED_EDGE('',*,*,#298,.F.) ;
#376=ORIENTED_EDGE('',*,*,#369,.F.) ;
#377=ORIENTED_EDGE('',*,*,#374,.F.) ;
#380=ORIENTED_EDGE('',*,*,#284,.T.) ;
#381=ORIENTED_EDGE('',*,*,#315,.T.) ;
#409=ORIENTED_EDGE('',*,*,#395,.T.) ;
#410=ORIENTED_EDGE('',*,*,#346,.F.) ;
#411=ORIENTED_EDGE('',*,*,#402,.F.) ;
#412=ORIENTED_EDGE('',*,*,#407,.T.) ;
#435=ORIENTED_EDGE('',*,*,#421,.T.) ;
#436=ORIENTED_EDGE('',*,*,#428,.F.) ;
#437=ORIENTED_EDGE('',*,*,#433,.F.) ;
#438=ORIENTED_EDGE('',*,*,#374,.T.) ;
#457=ORIENTED_EDGE('',*,*,#450,.F.) ;
#458=ORIENTED_EDGE('',*,*,#428,.T.) ;
#459=ORIENTED_EDGE('',*,*,#455,.T.) ;
#460=ORIENTED_EDGE('',*,*,#407,.F.) ;
#469=ORIENTED_EDGE('',*,*,#402,.T.) ;
#470=ORIENTED_EDGE('',*,*,#341,.F.) ;
#471=ORIENTED_EDGE('',*,*,#395,.F.) ;
#472=ORIENTED_EDGE('',*,*,#467,.T.) ;
#481=ORIENTED_EDGE('',*,*,#433,.T.) ;
#482=ORIENTED_EDGE('',*,*,#479,.F.) ;
#483=ORIENTED_EDGE('',*,*,#421,.F.) ;
#484=ORIENTED_EDGE('',*,*,#369,.T.) ;
#488=ORIENTED_EDGE('',*,*,#455,.F.) ;
#489=ORIENTED_EDGE('',*,*,#479,.T.) ;
#490=ORIENTED_EDGE('',*,*,#450,.T.) ;
#491=ORIENTED_EDGE('',*,*,#467,.F.) ;
#530=ORIENTED_EDGE('',*,*,#509,.T.) ;
#531=ORIENTED_EDGE('',*,*,#516,.F.) ;
#532=ORIENTED_EDGE('',*,*,#523,.F.) ;
#533=ORIENTED_EDGE('',*,*,#528,.T.) ;
#547=ORIENTED_EDGE('',*,*,#523,.T.) ;
#548=ORIENTED_EDGE('',*,*,#540,.F.) ;
#549=ORIENTED_EDGE('',*,*,#509,.F.) ;
#550=ORIENTED_EDGE('',*,*,#545,.T.) ;
#554=ORIENTED_EDGE('',*,*,#528,.F.) ;
#555=ORIENTED_EDGE('',*,*,#545,.F.) ;
#572=ORIENTED_EDGE('',*,*,#565,.T.) ;
#573=ORIENTED_EDGE('',*,*,#570,.T.) ;
#577=ORIENTED_EDGE('',*,*,#540,.T.) ;
#578=ORIENTED_EDGE('',*,*,#516,.T.) ;
#595=ORIENTED_EDGE('',*,*,#588,.F.) ;
#596=ORIENTED_EDGE('',*,*,#593,.F.) ;
#624=ORIENTED_EDGE('',*,*,#610,.T.) ;
#625=ORIENTED_EDGE('',*,*,#570,.F.) ;
#626=ORIENTED_EDGE('',*,*,#617,.F.) ;
#627=ORIENTED_EDGE('',*,*,#622,.T.) ;
#650=ORIENTED_EDGE('',*,*,#636,.T.) ;
#651=ORIENTED_EDGE('',*,*,#643,.F.) ;
#652=ORIENTED_EDGE('',*,*,#648,.F.) ;
#653=ORIENTED_EDGE('',*,*,#588,.T.) ;
#672=ORIENTED_EDGE('',*,*,#665,.T.) ;
#673=ORIENTED_EDGE('',*,*,#622,.F.) ;
#674=ORIENTED_EDGE('',*,*,#670,.F.) ;
#675=ORIENTED_EDGE('',*,*,#643,.T.) ;
#684=ORIENTED_EDGE('',*,*,#617,.T.) ;
#685=ORIENTED_EDGE('',*,*,#565,.F.) ;
#686=ORIENTED_EDGE('',*,*,#610,.F.) ;
#687=ORIENTED_EDGE('',*,*,#682,.T.) ;
#696=ORIENTED_EDGE('',*,*,#648,.T.) ;
#697=ORIENTED_EDGE('',*,*,#694,.F.) ;
#698=ORIENTED_EDGE('',*,*,#636,.F.) ;
#699=ORIENTED_EDGE('',*,*,#593,.T.) ;
#703=ORIENTED_EDGE('',*,*,#670,.T.) ;
#704=ORIENTED_EDGE('',*,*,#682,.F.) ;
#705=ORIENTED_EDGE('',*,*,#665,.F.) ;
#706=ORIENTED_EDGE('',*,*,#694,.T.) ;
#731=ORIENTED_EDGE('',*,*,#724,.T.) ;
#732=ORIENTED_EDGE('',*,*,#729,.F.) ;
#736=ORIENTED_EDGE('',*,*,#729,.T.) ;
#737=ORIENTED_EDGE('',*,*,#724,.F.) ;
#354=FACE_BOUND('',#351,.T.) ;
#382=FACE_BOUND('',#379,.T.) ;
#574=FACE_BOUND('',#571,.T.) ;
#597=FACE_BOUND('',#594,.T.) ;
#51=CLOSED_SHELL('Closed Shell',(#75,#80)) ;
#84=CLOSED_SHELL('Closed Shell',(#108,#113)) ;
#115=CLOSED_SHELL('Closed Shell',(#139,#144)) ;
#146=CLOSED_SHELL('Closed Shell',(#170,#175)) ;
#177=CLOSED_SHELL('Closed Shell',(#201,#206)) ;
#208=CLOSED_SHELL('Closed Shell',(#232,#237)) ;
#239=CLOSED_SHELL('Closed Shell',(#263,#268)) ;
#270=CLOSED_SHELL('Closed Shell',(#310,#327,#355,#383,#414,#440,#462,#474,#486,#493)) ;
#495=CLOSED_SHELL('Closed Shell',(#535,#552,#575,#598,#629,#655,#677,#689,#701,#708)) ;
#710=CLOSED_SHELL('Closed Shell',(#734,#739)) ;
#287=VECTOR('Line Direction',#286,1.) ;
#301=VECTOR('Line Direction',#300,1.) ;
#391=VECTOR('Line Direction',#390,1.) ;
#398=VECTOR('Line Direction',#397,1.) ;
#417=VECTOR('Line Direction',#416,1.) ;
#431=VECTOR('Line Direction',#430,1.) ;
#503=VECTOR('Line Direction',#502,1.) ;
#519=VECTOR('Line Direction',#518,1.) ;
#606=VECTOR('Line Direction',#605,1.) ;
#613=VECTOR('Line Direction',#612,1.) ;
#632=VECTOR('Line Direction',#631,1.) ;
#646=VECTOR('Line Direction',#645,1.) ;
#82=ADVANCED_BREP_SHAPE_REPRESENTATION('NONE',(#81,#114,#145,#176,#207,#238,#269,#494,#709,#740),#46) ;
#49=SHAPE_REPRESENTATION(' ',(#48),#46) ;
#75=ADVANCED_FACE('PartBody',(#74),#56,.T.) ;
#80=ADVANCED_FACE('PartBody',(#79),#56,.T.) ;
#108=ADVANCED_FACE('PartBody',(#107),#89,.T.) ;
#113=ADVANCED_FACE('PartBody',(#112),#89,.T.) ;
#139=ADVANCED_FACE('PartBody',(#138),#120,.T.) ;
#144=ADVANCED_FACE('PartBody',(#143),#120,.T.) ;
#170=ADVANCED_FACE('PartBody',(#169),#151,.T.) ;
#175=ADVANCED_FACE('PartBody',(#174),#151,.T.) ;
#201=ADVANCED_FACE('PartBody',(#200),#182,.T.) ;
#206=ADVANCED_FACE('PartBody',(#205),#182,.T.) ;
#232=ADVANCED_FACE('PartBody',(#231),#213,.T.) ;
#237=ADVANCED_FACE('PartBody',(#236),#213,.T.) ;
#263=ADVANCED_FACE('PartBody',(#262),#244,.T.) ;
#268=ADVANCED_FACE('PartBody',(#267),#244,.T.) ;
#310=ADVANCED_FACE('PartBody',(#309),#275,.F.) ;
#327=ADVANCED_FACE('PartBody',(#326),#275,.F.) ;
#355=ADVANCED_FACE('PartBody',(#350,#354),#332,.T.) ;
#383=ADVANCED_FACE('PartBody',(#378,#382),#360,.F.) ;
#414=ADVANCED_FACE('PartBody',(#413),#388,.T.) ;
#440=ADVANCED_FACE('PartBody',(#439),#388,.T.) ;
#462=ADVANCED_FACE('PartBody',(#461),#445,.F.) ;
#474=ADVANCED_FACE('PartBody',(#473),#388,.T.) ;
#486=ADVANCED_FACE('PartBody',(#485),#388,.T.) ;
#493=ADVANCED_FACE('PartBody',(#492),#445,.F.) ;
#535=ADVANCED_FACE('PartBody',(#534),#500,.T.) ;
#552=ADVANCED_FACE('PartBody',(#551),#500,.T.) ;
#575=ADVANCED_FACE('PartBody',(#556,#574),#360,.F.) ;
#598=ADVANCED_FACE('PartBody',(#579,#597),#332,.T.) ;
#629=ADVANCED_FACE('PartBody',(#628),#603,.F.) ;
#655=ADVANCED_FACE('PartBody',(#654),#603,.F.) ;
#677=ADVANCED_FACE('PartBody',(#676),#660,.F.) ;
#689=ADVANCED_FACE('PartBody',(#688),#603,.F.) ;
#701=ADVANCED_FACE('PartBody',(#700),#603,.F.) ;
#708=ADVANCED_FACE('PartBody',(#707),#660,.F.) ;
#734=ADVANCED_FACE('PartBody',(#733),#715,.T.) ;
#739=ADVANCED_FACE('PartBody',(#738),#715,.T.) ;
#4=APPLICATION_PROTOCOL_DEFINITION('international standard','config_control_design',1994,#1) ;
#32=APPROVAL_DATE_TIME(#13,#21) ;
#81=MANIFOLD_SOLID_BREP('PartBody.1',#51) ;
#114=MANIFOLD_SOLID_BREP('PartBody.2',#84) ;
#145=MANIFOLD_SOLID_BREP('PartBody.3',#115) ;
#176=MANIFOLD_SOLID_BREP('PartBody.4',#146) ;
#207=MANIFOLD_SOLID_BREP('PartBody.5',#177) ;
#238=MANIFOLD_SOLID_BREP('PartBody.6',#208) ;
#269=MANIFOLD_SOLID_BREP('PartBody.7',#239) ;
#494=MANIFOLD_SOLID_BREP('PartBody.8',#270) ;
#709=MANIFOLD_SOLID_BREP('PartBody.9',#495) ;
#740=MANIFOLD_SOLID_BREP('PartBody.10',#710) ;
#11=CALENDAR_DATE(2021,23,3) ;
#30=CC_DESIGN_APPROVAL(#21,(#16,#6,#14)) ;
#18=CC_DESIGN_DATE_AND_TIME_ASSIGNMENT(#13,#17,(#16)) ;
#29=CC_DESIGN_DATE_AND_TIME_ASSIGNMENT(#13,#28,(#14)) ;
#17=DATE_TIME_ROLE('classification_date') ;
#28=DATE_TIME_ROLE('creation_date') ;
#27=CC_DESIGN_PERSON_AND_ORGANIZATION_ASSIGNMENT(#25,#26,(#16)) ;
#33=CC_DESIGN_PERSON_AND_ORGANIZATION_ASSIGNMENT(#25,#34,(#6)) ;
#35=CC_DESIGN_PERSON_AND_ORGANIZATION_ASSIGNMENT(#25,#36,(#6,#14)) ;
#37=CC_DESIGN_PERSON_AND_ORGANIZATION_ASSIGNMENT(#25,#38,(#5)) ;
#26=PERSON_AND_ORGANIZATION_ROLE('classification_officer') ;
#34=PERSON_AND_ORGANIZATION_ROLE('design_supplier') ;
#36=PERSON_AND_ORGANIZATION_ROLE('creator') ;
#38=PERSON_AND_ORGANIZATION_ROLE('design_owner') ;
#39=CC_DESIGN_SECURITY_CLASSIFICATION(#16,(#6)) ;
#60=CIRCLE('generated circle',#59,2.5) ;
#69=CIRCLE('generated circle',#68,2.5) ;
#93=CIRCLE('generated circle',#92,2.5) ;
#102=CIRCLE('generated circle',#101,2.5) ;
#124=CIRCLE('generated circle',#123,2.5) ;
#133=CIRCLE('generated circle',#132,2.5) ;
#155=CIRCLE('generated circle',#154,2.5) ;
#164=CIRCLE('generated circle',#163,2.5) ;
#186=CIRCLE('generated circle',#185,2.5) ;
#195=CIRCLE('generated circle',#194,2.5) ;
#217=CIRCLE('generated circle',#216,2.5) ;
#226=CIRCLE('generated circle',#225,2.5) ;
#248=CIRCLE('generated circle',#247,2.5) ;
#257=CIRCLE('generated circle',#256,2.5) ;
#279=CIRCLE('generated circle',#278,5.) ;
#295=CIRCLE('generated circle',#294,5.) ;
#314=CIRCLE('generated circle',#313,5.) ;
#319=CIRCLE('generated circle',#318,5.) ;
#336=CIRCLE('generated circle',#335,6.9891335294) ;
#345=CIRCLE('generated circle',#344,6.9891335294) ;
#364=CIRCLE('generated circle',#363,6.9891335294) ;
#373=CIRCLE('generated circle',#372,6.9891335294) ;
#406=CIRCLE('generated circle',#405,6.9891335294) ;
#425=CIRCLE('generated circle',#424,6.9891335294) ;
#449=CIRCLE('generated circle',#448,2.5) ;
#454=CIRCLE('generated circle',#453,2.5) ;
#466=CIRCLE('generated circle',#465,6.9891335294) ;
#478=CIRCLE('generated circle',#477,6.9891335294) ;
#513=CIRCLE('generated circle',#512,13.) ;
#527=CIRCLE('generated circle',#526,13.) ;
#539=CIRCLE('generated circle',#538,13.) ;
#544=CIRCLE('generated circle',#543,13.) ;
#560=CIRCLE('generated circle',#559,9.25188469755) ;
#569=CIRCLE('generated circle',#568,9.25188469755) ;
#583=CIRCLE('generated circle',#582,9.25188469755) ;
#592=CIRCLE('generated circle',#591,9.25188469755) ;
#621=CIRCLE('generated circle',#620,9.25188469755) ;
#640=CIRCLE('generated circle',#639,9.25188469755) ;
#664=CIRCLE('generated circle',#663,2.5) ;
#669=CIRCLE('generated circle',#668,2.5) ;
#681=CIRCLE('generated circle',#680,9.25188469755) ;
#693=CIRCLE('generated circle',#692,9.25188469755) ;
#719=CIRCLE('generated circle',#718,2.5) ;
#728=CIRCLE('generated circle',#727,2.5) ;
#83=SHAPE_REPRESENTATION_RELATIONSHIP(' ',' ',#49,#82) ;
#275=CYLINDRICAL_SURFACE('generated cylinder',#274,5.) ;
#388=CYLINDRICAL_SURFACE('generated cylinder',#387,6.9891335294) ;
#500=CYLINDRICAL_SURFACE('generated cylinder',#499,13.) ;
#603=CYLINDRICAL_SURFACE('generated cylinder',#602,9.25188469755) ;
#445=TOROIDAL_SURFACE('homeo Torus',#444,8.,2.5) ;
#660=TOROIDAL_SURFACE('homeo Torus',#659,8.,2.5) ;
#3=DESIGN_CONTEXT(' ',#1,'design') ;
#65=EDGE_CURVE('',#62,#64,#60,.T.) ;
#70=EDGE_CURVE('',#62,#64,#69,.T.) ;
#98=EDGE_CURVE('',#95,#97,#93,.T.) ;
#103=EDGE_CURVE('',#95,#97,#102,.T.) ;
#129=EDGE_CURVE('',#126,#128,#124,.T.) ;
#134=EDGE_CURVE('',#126,#128,#133,.T.) ;
#160=EDGE_CURVE('',#157,#159,#155,.T.) ;
#165=EDGE_CURVE('',#157,#159,#164,.T.) ;
#191=EDGE_CURVE('',#188,#190,#186,.T.) ;
#196=EDGE_CURVE('',#188,#190,#195,.T.) ;
#222=EDGE_CURVE('',#219,#221,#217,.T.) ;
#227=EDGE_CURVE('',#219,#221,#226,.T.) ;
#253=EDGE_CURVE('',#250,#252,#248,.T.) ;
#258=EDGE_CURVE('',#250,#252,#257,.T.) ;
#284=EDGE_CURVE('',#281,#283,#279,.T.) ;
#291=EDGE_CURVE('',#290,#281,#288,.F.) ;
#298=EDGE_CURVE('',#290,#297,#295,.T.) ;
#303=EDGE_CURVE('',#297,#283,#302,.F.) ;
#315=EDGE_CURVE('',#283,#281,#314,.T.) ;
#320=EDGE_CURVE('',#297,#290,#319,.T.) ;
#341=EDGE_CURVE('',#338,#340,#336,.T.) ;
#346=EDGE_CURVE('',#340,#338,#345,.T.) ;
#369=EDGE_CURVE('',#366,#368,#364,.T.) ;
#374=EDGE_CURVE('',#368,#366,#373,.T.) ;
#395=EDGE_CURVE('',#394,#338,#392,.T.) ;
#402=EDGE_CURVE('',#401,#340,#399,.T.) ;
#407=EDGE_CURVE('',#401,#394,#406,.T.) ;
#421=EDGE_CURVE('',#366,#420,#418,.T.) ;
#428=EDGE_CURVE('',#427,#420,#425,.T.) ;
#433=EDGE_CURVE('',#368,#427,#432,.T.) ;
#450=EDGE_CURVE('',#427,#401,#449,.F.) ;
#455=EDGE_CURVE('',#420,#394,#454,.F.) ;
#467=EDGE_CURVE('',#394,#401,#466,.T.) ;
#479=EDGE_CURVE('',#420,#427,#478,.T.) ;
#509=EDGE_CURVE('',#506,#508,#504,.T.) ;
#516=EDGE_CURVE('',#515,#508,#513,.T.) ;
#523=EDGE_CURVE('',#522,#515,#520,.T.) ;
#528=EDGE_CURVE('',#522,#506,#527,.T.) ;
#540=EDGE_CURVE('',#508,#515,#539,.T.) ;
#545=EDGE_CURVE('',#506,#522,#544,.T.) ;
#565=EDGE_CURVE('',#562,#564,#560,.T.) ;
#570=EDGE_CURVE('',#564,#562,#569,.T.) ;
#588=EDGE_CURVE('',#585,#587,#583,.T.) ;
#593=EDGE_CURVE('',#587,#585,#592,.T.) ;
#610=EDGE_CURVE('',#609,#562,#607,.F.) ;
#617=EDGE_CURVE('',#616,#564,#614,.F.) ;
#622=EDGE_CURVE('',#616,#609,#621,.T.) ;
#636=EDGE_CURVE('',#587,#635,#633,.F.) ;
#643=EDGE_CURVE('',#642,#635,#640,.T.) ;
#648=EDGE_CURVE('',#585,#642,#647,.F.) ;
#665=EDGE_CURVE('',#635,#609,#664,.F.) ;
#670=EDGE_CURVE('',#642,#616,#669,.F.) ;
#682=EDGE_CURVE('',#609,#616,#681,.T.) ;
#694=EDGE_CURVE('',#635,#642,#693,.T.) ;
#724=EDGE_CURVE('',#721,#723,#719,.T.) ;
#729=EDGE_CURVE('',#721,#723,#728,.T.) ;
#71=EDGE_LOOP('',(#72,#73)) ;
#76=EDGE_LOOP('',(#77,#78)) ;
#104=EDGE_LOOP('',(#105,#106)) ;
#109=EDGE_LOOP('',(#110,#111)) ;
#135=EDGE_LOOP('',(#136,#137)) ;
#140=EDGE_LOOP('',(#141,#142)) ;
#166=EDGE_LOOP('',(#167,#168)) ;
#171=EDGE_LOOP('',(#172,#173)) ;
#197=EDGE_LOOP('',(#198,#199)) ;
#202=EDGE_LOOP('',(#203,#204)) ;
#228=EDGE_LOOP('',(#229,#230)) ;
#233=EDGE_LOOP('',(#234,#235)) ;
#259=EDGE_LOOP('',(#260,#261)) ;
#264=EDGE_LOOP('',(#265,#266)) ;
#304=EDGE_LOOP('',(#305,#306,#307,#308)) ;
#321=EDGE_LOOP('',(#322,#323,#324,#325)) ;
#347=EDGE_LOOP('',(#348,#349)) ;
#351=EDGE_LOOP('',(#352,#353)) ;
#375=EDGE_LOOP('',(#376,#377)) ;
#379=EDGE_LOOP('',(#380,#381)) ;
#408=EDGE_LOOP('',(#409,#410,#411,#412)) ;
#434=EDGE_LOOP('',(#435,#436,#437,#438)) ;
#456=EDGE_LOOP('',(#457,#458,#459,#460)) ;
#468=EDGE_LOOP('',(#469,#470,#471,#472)) ;
#480=EDGE_LOOP('',(#481,#482,#483,#484)) ;
#487=EDGE_LOOP('',(#488,#489,#490,#491)) ;
#529=EDGE_LOOP('',(#530,#531,#532,#533)) ;
#546=EDGE_LOOP('',(#547,#548,#549,#550)) ;
#553=EDGE_LOOP('',(#554,#555)) ;
#571=EDGE_LOOP('',(#572,#573)) ;
#576=EDGE_LOOP('',(#577,#578)) ;
#594=EDGE_LOOP('',(#595,#596)) ;
#623=EDGE_LOOP('',(#624,#625,#626,#627)) ;
#649=EDGE_LOOP('',(#650,#651,#652,#653)) ;
#671=EDGE_LOOP('',(#672,#673,#674,#675)) ;
#683=EDGE_LOOP('',(#684,#685,#686,#687)) ;
#695=EDGE_LOOP('',(#696,#697,#698,#699)) ;
#702=EDGE_LOOP('',(#703,#704,#705,#706)) ;
#730=EDGE_LOOP('',(#731,#732)) ;
#735=EDGE_LOOP('',(#736,#737)) ;
#74=FACE_OUTER_BOUND('',#71,.T.) ;
#79=FACE_OUTER_BOUND('',#76,.T.) ;
#107=FACE_OUTER_BOUND('',#104,.T.) ;
#112=FACE_OUTER_BOUND('',#109,.T.) ;
#138=FACE_OUTER_BOUND('',#135,.T.) ;
#143=FACE_OUTER_BOUND('',#140,.T.) ;
#169=FACE_OUTER_BOUND('',#166,.T.) ;
#174=FACE_OUTER_BOUND('',#171,.T.) ;
#200=FACE_OUTER_BOUND('',#197,.T.) ;
#205=FACE_OUTER_BOUND('',#202,.T.) ;
#231=FACE_OUTER_BOUND('',#228,.T.) ;
#236=FACE_OUTER_BOUND('',#233,.T.) ;
#262=FACE_OUTER_BOUND('',#259,.T.) ;
#267=FACE_OUTER_BOUND('',#264,.T.) ;
#309=FACE_OUTER_BOUND('',#304,.T.) ;
#326=FACE_OUTER_BOUND('',#321,.T.) ;
#350=FACE_OUTER_BOUND('',#347,.T.) ;
#378=FACE_OUTER_BOUND('',#375,.T.) ;
#413=FACE_OUTER_BOUND('',#408,.T.) ;
#439=FACE_OUTER_BOUND('',#434,.T.) ;
#461=FACE_OUTER_BOUND('',#456,.T.) ;
#473=FACE_OUTER_BOUND('',#468,.T.) ;
#485=FACE_OUTER_BOUND('',#480,.T.) ;
#492=FACE_OUTER_BOUND('',#487,.T.) ;
#534=FACE_OUTER_BOUND('',#529,.T.) ;
#551=FACE_OUTER_BOUND('',#546,.T.) ;
#556=FACE_OUTER_BOUND('',#553,.T.) ;
#579=FACE_OUTER_BOUND('',#576,.T.) ;
#628=FACE_OUTER_BOUND('',#623,.T.) ;
#654=FACE_OUTER_BOUND('',#649,.T.) ;
#676=FACE_OUTER_BOUND('',#671,.T.) ;
#688=FACE_OUTER_BOUND('',#683,.T.) ;
#700=FACE_OUTER_BOUND('',#695,.T.) ;
#707=FACE_OUTER_BOUND('',#702,.T.) ;
#733=FACE_OUTER_BOUND('',#730,.T.) ;
#738=FACE_OUTER_BOUND('',#735,.T.) ;
#45=UNCERTAINTY_MEASURE_WITH_UNIT(LENGTH_MEASURE(0.005),#41,'distance_accuracy_value','CONFUSED CURVE UNCERTAINTY') ;
#288=LINE('Line',#285,#287) ;
#302=LINE('Line',#299,#301) ;
#392=LINE('Line',#389,#391) ;
#399=LINE('Line',#396,#398) ;
#418=LINE('Line',#415,#417) ;
#432=LINE('Line',#429,#431) ;
#504=LINE('Line',#501,#503) ;
#520=LINE('Line',#517,#519) ;
#607=LINE('Line',#604,#606) ;
#614=LINE('Line',#611,#613) ;
#633=LINE('Line',#630,#632) ;
#647=LINE('Line',#644,#646) ;
#2=MECHANICAL_CONTEXT(' ',#1,'mechanical') ;
#24=PERSONAL_ADDRESS(' ',' ',' ',' ',' ',' ',' ',' ',' ',' ',' ',' ',(#22),' ') ;
#332=PLANE('Plane',#331) ;
#360=PLANE('Plane',#359) ;
#43=PLANE_ANGLE_MEASURE_WITH_UNIT(PLANE_ANGLE_MEASURE(0.0174532925199),#42) ;
#7=PRODUCT_CATEGORY('part',$) ;
#9=PRODUCT_CATEGORY_RELATIONSHIP(' ',' ',#7,#8) ;
#6=PRODUCT_DEFINITION_FORMATION_WITH_SPECIFIED_SOURCE('',' ',#5,.NOT_KNOWN.) ;
#8=PRODUCT_RELATED_PRODUCT_CATEGORY('detail',$,(#5)) ;
#50=SHAPE_DEFINITION_REPRESENTATION(#40,#49) ;
#56=SPHERICAL_SURFACE('',#55,2.5) ;
#89=SPHERICAL_SURFACE('',#88,2.5) ;
#120=SPHERICAL_SURFACE('',#119,2.5) ;
#151=SPHERICAL_SURFACE('',#150,2.5) ;
#182=SPHERICAL_SURFACE('',#181,2.5) ;
#213=SPHERICAL_SURFACE('',#212,2.5) ;
#244=SPHERICAL_SURFACE('',#243,2.5) ;
#715=SPHERICAL_SURFACE('',#714,2.5) ;
#62=VERTEX_POINT('',#61) ;
#64=VERTEX_POINT('',#63) ;
#95=VERTEX_POINT('',#94) ;
#97=VERTEX_POINT('',#96) ;
#126=VERTEX_POINT('',#125) ;
#128=VERTEX_POINT('',#127) ;
#157=VERTEX_POINT('',#156) ;
#159=VERTEX_POINT('',#158) ;
#188=VERTEX_POINT('',#187) ;
#190=VERTEX_POINT('',#189) ;
#219=VERTEX_POINT('',#218) ;
#221=VERTEX_POINT('',#220) ;
#250=VERTEX_POINT('',#249) ;
#252=VERTEX_POINT('',#251) ;
#281=VERTEX_POINT('',#280) ;
#283=VERTEX_POINT('',#282) ;
#290=VERTEX_POINT('',#289) ;
#297=VERTEX_POINT('',#296) ;
#338=VERTEX_POINT('',#337) ;
#340=VERTEX_POINT('',#339) ;
#366=VERTEX_POINT('',#365) ;
#368=VERTEX_POINT('',#367) ;
#394=VERTEX_POINT('',#393) ;
#401=VERTEX_POINT('',#400) ;
#420=VERTEX_POINT('',#419) ;
#427=VERTEX_POINT('',#426) ;
#506=VERTEX_POINT('',#505) ;
#508=VERTEX_POINT('',#507) ;
#515=VERTEX_POINT('',#514) ;
#522=VERTEX_POINT('',#521) ;
#562=VERTEX_POINT('',#561) ;
#564=VERTEX_POINT('',#563) ;
#585=VERTEX_POINT('',#584) ;
#587=VERTEX_POINT('',#586) ;
#609=VERTEX_POINT('',#608) ;
#616=VERTEX_POINT('',#615) ;
#635=VERTEX_POINT('',#634) ;
#642=VERTEX_POINT('',#641) ;
#721=VERTEX_POINT('',#720) ;
#723=VERTEX_POINT('',#722) ;
#41=(LENGTH_UNIT()NAMED_UNIT(*)SI_UNIT(.MILLI.,.METRE.)) ;
#42=(NAMED_UNIT(*)PLANE_ANGLE_UNIT()SI_UNIT($,.RADIAN.)) ;
#44=(NAMED_UNIT(*)SI_UNIT($,.STERADIAN.)SOLID_ANGLE_UNIT()) ;
#46=(GEOMETRIC_REPRESENTATION_CONTEXT(3)GLOBAL_UNCERTAINTY_ASSIGNED_CONTEXT((#45))GLOBAL_UNIT_ASSIGNED_CONTEXT((#41,#42,#44))REPRESENTATION_CONTEXT(' ',' ')) ;
ENDSEC;
END-ISO-10303-21;
