                                                                        S      1
,,14HNewest base v1,14HNewest base v1,7Hunknown,7Hunknown,32,38,7,99,15,G      1
,1.,2,2HMM,1,0.08,15H20241111.132454,0.01,10000.,7Hunknown,7Hunknown,11,G      2
0,15H20241111.192413;                                                   G      3
     186       1                                                00000000D      1
     186            -311       1       0                               0D      2
     514       2                                                00010000D      3
     514                       3       1                               0D      4
     510       5                                                00010000D      5
     510            -311       1       1                               0D      6
     510       6                                                00010000D      7
     510            -311       1       1                               0D      8
     510       7                                                00010000D      9
     510            -311       1       1                               0D     10
     510       8                                                00010000D     11
     510            -311       1       1                               0D     12
     510       9                                                00010000D     13
     510            -311       1       1                               0D     14
     510      10                                                00010000D     15
     510            -311       1       1                               0D     16
     510      11                                                00010000D     17
     510            -311       1       1                               0D     18
     510      12                                                00010000D     19
     510            -311       1       1                               0D     20
     510      13                                                00010000D     21
     510            -311       1       1                               0D     22
     510      14                                                00010000D     23
     510            -311       1       1                               0D     24
     510      15                                                00010000D     25
     510            -311       1       1                               0D     26
     510      16                                                00010000D     27
     510            -311       1       1                               0D     28
     510      17                                                00010000D     29
     510            -311       1       1                               0D     30
     510      18                                                00010000D     31
     510            -311       1       1                               0D     32
     510      19                                                00010000D     33
     510            -311       1       1                               0D     34
     510      20                                                00010000D     35
     510            -311       1       1                               0D     36
     510      21                                                00010000D     37
     510            -311       1       1                               0D     38
     510      22                                                00010000D     39
     510            -311       1       1                               0D     40
     510      23                                                00010000D     41
     510            -311       1       1                               0D     42
     510      24                                                00010000D     43
     510            -311       1       1                               0D     44
     510      25                                                00010000D     45
     510            -311       1       1                               0D     46
     510      26                                                00010000D     47
     510            -311       1       1                               0D     48
     510      27                                                00010000D     49
     510            -311       1       1                               0D     50
     510      28                                                00010000D     51
     510            -311       1       1                               0D     52
     510      29                                                00010000D     53
     510            -311       1       1                               0D     54
     510      30                                                00010000D     55
     510            -311       1       1                               0D     56
     508      31                                                00010000D     57
     508                       1       1                               0D     58
     508      32                                                00010000D     59
     508                       5       1                               0D     60
     508      37                                                00010000D     61
     508                       1       1                               0D     62
     508      38                                                00010000D     63
     508                       1       1                               0D     64
     508      39                                                00010000D     65
     508                       1       1                               0D     66
     508      40                                                00010000D     67
     508                       1       1                               0D     68
     508      41                                                00010000D     69
     508                       1       1                               0D     70
     508      42                                                00010000D     71
     508                       1       1                               0D     72
     508      43                                                00010000D     73
     508                       1       1                               0D     74
     508      44                                                00010000D     75
     508                       1       1                               0D     76
     508      45                                                00010000D     77
     508                       1       1                               0D     78
     508      46                                                00010000D     79
     508                       1       1                               0D     80
     508      47                                                00010000D     81
     508                       1       1                               0D     82
     508      48                                                00010000D     83
     508                       1       1                               0D     84
     508      49                                                00010000D     85
     508                       1       1                               0D     86
     508      50                                                00010000D     87
     508                       1       1                               0D     88
     508      51                                                00010000D     89
     508                       1       1                               0D     90
     508      52                                                00010000D     91
     508                       1       1                               0D     92
     508      53                                                00010000D     93
     508                       1       1                               0D     94
     508      54                                                00010000D     95
     508                       1       1                               0D     96
     508      55                                                00010000D     97
     508                       1       1                               0D     98
     508      56                                                00010000D     99
     508                       1       1                               0D    100
     508      57                                                00010000D    101
     508                       1       1                               0D    102
     508      58                                                00010000D    103
     508                       1       1                               0D    104
     508      59                                                00010000D    105
     508                       1       1                               0D    106
     508      60                                                00010000D    107
     508                       6       1                               0D    108
     126      66                                                00010000D    109
     126       0               5       0                               0D    110
     126      71                                                00010000D    111
     126       0               2       0                               0D    112
     126      73                                                00010000D    113
     126       0               5       0                               0D    114
     126      78                                                00010000D    115
     126       0               2       0                               0D    116
     126      80                                                00010000D    117
     126       0               2       0                               0D    118
     126      82                                                00010000D    119
     126       0               5       0                               0D    120
     126      87                                                00010000D    121
     126       0               3       0                               0D    122
     126      90                                                00010000D    123
     126       0               5       0                               0D    124
     126      95                                                00010000D    125
     126       0               2       0                               0D    126
     126      97                                                00010000D    127
     126       0               5       0                               0D    128
     126     102                                                00010000D    129
     126       0               3       0                               0D    130
     126     105                                                00010000D    131
     126       0               5       0                               0D    132
     126     110                                                00010000D    133
     126       0               2       0                               0D    134
     126     112                                                00010000D    135
     126       0               5       0                               0D    136
     126     117                                                00010000D    137
     126       0               2       0                               0D    138
     126     119                                                00010000D    139
     126       0               4       0                               0D    140
     126     123                                                00010000D    141
     126       0               3       0                               0D    142
     126     126                                                00010000D    143
     126       0               4       0                               0D    144
     126     130                                                00010000D    145
     126       0               2       0                               0D    146
     126     132                                                00010000D    147
     126       0               4       0                               0D    148
     126     136                                                00010000D    149
     126       0               2       0                               0D    150
     126     138                                                00010000D    151
     126       0               4       0                               0D    152
     126     142                                                00010000D    153
     126       0               2       0                               0D    154
     126     144                                                00010000D    155
     126       0               4       0                               0D    156
     126     148                                                00010000D    157
     126       0               2       0                               0D    158
     126     150                                                00010000D    159
     126       0               4       0                               0D    160
     126     154                                                00010000D    161
     126       0               2       0                               0D    162
     126     156                                                00010000D    163
     126       0               2       0                               0D    164
     126     158                                                00010000D    165
     126       0               2       0                               0D    166
     126     160                                                00010000D    167
     126       0               5       0                               0D    168
     126     165                                                00010000D    169
     126       0               2       0                               0D    170
     126     167                                                00010000D    171
     126       0               5       0                               0D    172
     126     172                                                00010000D    173
     126       0               2       0                               0D    174
     126     174                                                00010000D    175
     126       0               2       0                               0D    176
     126     176                                                00010000D    177
     126       0               2       0                               0D    178
     126     178                                                00010000D    179
     126       0               3       0                               0D    180
     126     181                                                00010000D    181
     126       0               2       0                               0D    182
     126     183                                                00010000D    183
     126       0               5       0                               0D    184
     126     188                                                00010000D    185
     126       0               2       0                               0D    186
     126     190                                                00010000D    187
     126       0               2       0                               0D    188
     126     192                                                00010000D    189
     126       0               2       0                               0D    190
     126     194                                                00010000D    191
     126       0               3       0                               0D    192
     126     197                                                00010000D    193
     126       0               2       0                               0D    194
     126     199                                                00010000D    195
     126       0               2       0                               0D    196
     126     201                                                00010000D    197
     126       0               2       0                               0D    198
     126     203                                                00010000D    199
     126       0               2       0                               0D    200
     126     205                                                00010000D    201
     126       0               4       0                               0D    202
     126     209                                                00010000D    203
     126       0               2       0                               0D    204
     126     211                                                00010000D    205
     126       0               2       0                               0D    206
     126     213                                                00010000D    207
     126       0               2       0                               0D    208
     126     215                                                00010000D    209
     126       0               2       0                               0D    210
     126     217                                                00010000D    211
     126       0               5       0                               0D    212
     126     222                                                00010000D    213
     126       0               2       0                               0D    214
     126     224                                                00010000D    215
     126       0               2       0                               0D    216
     126     226                                                00010000D    217
     126       0               2       0                               0D    218
     126     228                                                00010000D    219
     126       0               2       0                               0D    220
     126     230                                                00010000D    221
     126       0               4       0                               0D    222
     126     234                                                00010000D    223
     126       0               2       0                               0D    224
     126     236                                                00010000D    225
     126       0               3       0                               0D    226
     126     239                                                00010000D    227
     126       0               2       0                               0D    228
     126     241                                                00010000D    229
     126       0               4       0                               0D    230
     126     245                                                00010000D    231
     126       0               4       0                               0D    232
     126     249                                                00010000D    233
     126       0               2       0                               0D    234
     126     251                                                00010000D    235
     126       0               2       0                               0D    236
     126     253                                                00010000D    237
     126       0               2       0                               0D    238
     126     255                                                00010000D    239
     126       0               4       0                               0D    240
     126     259                                                00010000D    241
     126       0               2       0                               0D    242
     126     261                                                00010000D    243
     126       0               5       0                               0D    244
     126     266                                                00010000D    245
     126       0               2       0                               0D    246
     126     268                                                00010000D    247
     126       0               2       0                               0D    248
     126     270                                                00010000D    249
     126       0               2       0                               0D    250
     126     272                                                00010000D    251
     126       0               5       0                               0D    252
     128     277                                                00010000D    253
     128       0    -311       7       0                               0D    254
     128     284                                                00010000D    255
     128       0    -311       4       0                               0D    256
     128     288                                                00010000D    257
     128       0    -311       4       0                               0D    258
     128     292                                                00010000D    259
     128       0    -311       6       0                               0D    260
     128     298                                                00010000D    261
     128       0    -311       6       0                               0D    262
     128     304                                                00010000D    263
     128       0    -311       5       0                               0D    264
     128     309                                                00010000D    265
     128       0    -311       6       0                               0D    266
     128     315                                                00010000D    267
     128       0    -311       3       0                               0D    268
     128     318                                                00010000D    269
     128       0    -311       5       0                               0D    270
     128     323                                                00010000D    271
     128       0    -311       5       0                               0D    272
     128     328                                                00010000D    273
     128       0    -311       6       0                               0D    274
     128     334                                                00010000D    275
     128       0    -311       4       0                               0D    276
     128     338                                                00010000D    277
     128       0    -311       6       0                               0D    278
     128     344                                                00010000D    279
     128       0    -311       3       0                               0D    280
     128     347                                                00010000D    281
     128       0    -311       3       0                               0D    282
     128     350                                                00010000D    283
     128       0    -311       7       0                               0D    284
     128     357                                                00010000D    285
     128       0    -311       5       0                               0D    286
     128     362                                                00010000D    287
     128       0    -311       7       0                               0D    288
     128     369                                                00010000D    289
     128       0    -311       7       0                               0D    290
     128     376                                                00010000D    291
     128       0    -311       4       0                               0D    292
     128     380                                                00010000D    293
     128       0    -311       7       0                               0D    294
     128     387                                                00010000D    295
     128       0    -311       4       0                               0D    296
     128     391                                                00010000D    297
     128       0    -311       6       0                               0D    298
     128     397                                                00010000D    299
     128       0    -311       4       0                               0D    300
     128     401                                                00010000D    301
     128       0    -311       6       0                               0D    302
     128     407                                                00010000D    303
     128       0    -311       5       0                               0D    304
     502     412                                                00010000D    305
     502                      15       1                               0D    306
     504     427                                                00010001D    307
     504                      21       1                               0D    308
     406     448                                                00000000D    309
     406                       1      15                               0D    310
     314     449                                                00000200D    311
     314                       2       0                               0D    312
     314     451                                                00000200D    313
     314                       2       0                               0D    314
186,3,1,0,0,1,309;                                                     1P      1
514,26,5,1,7,1,9,1,11,1,13,1,15,1,17,1,19,1,21,1,23,1,25,1,27,1,       3P      2
29,1,31,1,33,1,35,1,37,1,39,1,41,1,43,1,45,1,47,1,49,1,51,1,53,        3P      3
1,55,1;                                                                3P      4
510,253,1,1,57;                                                        5P      5
510,255,1,1,59;                                                        7P      6
510,257,1,1,61;                                                        9P      7
510,259,1,1,63;                                                       11P      8
510,261,1,1,65;                                                       13P      9
510,263,1,1,67;                                                       15P     10
510,265,1,1,69;                                                       17P     11
510,267,1,1,71;                                                       19P     12
510,269,1,1,73;                                                       21P     13
510,271,1,1,75;                                                       23P     14
510,273,1,1,77;                                                       25P     15
510,275,1,1,79;                                                       27P     16
510,277,1,1,81;                                                       29P     17
510,279,1,1,83;                                                       31P     18
510,281,1,1,85;                                                       33P     19
510,283,1,1,87;                                                       35P     20
510,285,1,1,89;                                                       37P     21
510,287,1,1,91;                                                       39P     22
510,289,1,1,93;                                                       41P     23
510,291,1,1,95;                                                       43P     24
510,293,1,1,97;                                                       45P     25
510,295,1,1,99;                                                       47P     26
510,297,1,1,101;                                                      49P     27
510,299,1,1,103;                                                      51P     28
510,301,1,1,105;                                                      53P     29
510,303,1,1,107;                                                      55P     30
508,4,0,307,1,1,0,0,307,2,1,0,0,307,3,1,0,0,307,4,1,0;                57P     31
508,24,0,307,3,0,0,0,307,5,0,0,0,307,6,0,0,0,307,7,1,0,0,307,8,       59P     32
0,0,0,307,9,1,0,0,307,10,0,0,0,307,11,1,0,0,307,12,0,0,0,307,13,      59P     33
0,0,0,307,14,0,0,0,307,15,0,0,0,307,16,0,0,0,307,17,0,0,0,307,        59P     34
18,0,0,0,307,19,1,0,0,307,20,0,0,0,307,21,1,0,0,307,22,0,0,0,         59P     35
307,23,1,0,0,307,24,0,0,0,307,25,0,0,0,307,26,0,0,0,307,27,0,0;       59P     36
508,4,0,307,2,0,0,0,307,28,0,0,0,307,29,0,0,0,307,5,1,0;              61P     37
508,4,0,307,6,1,0,0,307,29,1,0,0,307,30,1,0,0,307,31,1,0;             63P     38
508,4,0,307,32,1,0,0,307,33,1,0,0,307,12,1,0,0,307,34,1,0;            65P     39
508,4,0,307,34,0,0,0,307,11,0,0,0,307,35,0,0,0,307,36,0,0;            67P     40
508,4,0,307,14,1,0,0,307,37,1,0,0,307,38,1,0,0,307,39,1,0;            69P     41
508,4,0,307,39,0,0,0,307,40,0,0,0,307,41,0,0,0,307,15,1,0;            71P     42
508,4,0,307,31,0,0,0,307,42,0,0,0,307,43,0,0,0,307,7,0,0;             73P     43
508,4,0,307,4,0,0,0,307,27,1,0,0,307,44,0,0,0,307,45,0,0;             75P     44
508,4,0,307,22,1,0,0,307,46,1,0,0,307,47,1,0,0,307,48,1,0;            77P     45
508,4,0,307,46,0,0,0,307,21,0,0,0,307,49,0,0,0,307,50,0,0;            79P     46
508,4,0,307,20,1,0,0,307,51,1,0,0,307,52,1,0,0,307,49,1,0;            81P     47
508,4,0,307,51,0,0,0,307,19,0,0,0,307,53,0,0,0,307,54,0,0;            83P     48
508,4,0,307,48,0,0,0,307,55,0,0,0,307,56,0,0,0,307,23,0,0;            85P     49
508,4,0,307,57,1,0,0,307,58,1,0,0,307,16,1,0,0,307,41,1,0;            87P     50
508,4,0,307,58,0,0,0,307,59,0,0,0,307,60,0,0,0,307,17,1,0;            89P     51
508,4,0,307,61,1,0,0,307,53,1,0,0,307,18,1,0,0,307,60,1,0;            91P     52
508,4,0,307,62,1,0,0,307,63,1,0,0,307,24,1,0,0,307,56,1,0;            93P     53
508,4,0,307,63,0,0,0,307,64,0,0,0,307,65,0,0,0,307,25,1,0;            95P     54
508,4,0,307,66,1,0,0,307,44,1,0,0,307,26,1,0,0,307,65,1,0;            97P     55
508,4,0,307,33,0,0,0,307,67,0,0,0,307,37,0,0,0,307,13,1,0;            99P     56
508,4,0,307,68,1,0,0,307,69,1,0,0,307,8,1,0,0,307,43,1,0;            101P     57
508,4,0,307,69,0,0,0,307,70,0,0,0,307,71,0,0,0,307,9,0,0;            103P     58
508,4,0,307,72,1,0,0,307,35,1,0,0,307,10,1,0,0,307,71,1,0;           105P     59
508,24,0,307,1,0,0,0,307,45,1,0,0,307,66,0,0,0,307,64,1,0,0,307,     107P     60
62,0,0,0,307,55,1,0,0,307,47,0,0,0,307,50,1,0,0,307,52,0,0,0,        107P     61
307,54,1,0,0,307,61,0,0,0,307,59,1,0,0,307,57,0,0,0,307,40,1,0,      107P     62
0,307,38,0,0,0,307,67,1,0,0,307,32,0,0,0,307,36,1,0,0,307,72,0,      107P     63
0,0,307,70,1,0,0,307,68,0,0,0,307,42,1,0,0,307,30,0,0,0,307,28,      107P     64
1,0;                                                                 107P     65
126,2,2,0,0,0,0,-0.785398163397448,-0.785398163397448,               109P     66
-0.785398163397448,0.785398163397448,0.785398163397448,              109P     67
0.785398163397448,1.,0.707106781186543,1.,1.11022302462516D-15,      109P     68
219.8,12.7,1.11022302462516D-15,224.8,12.7,5.,224.8,12.7,            109P     69
-0.785398163397448,0.785398163397448,0.,0.,0.;                       109P     70
126,1,1,0,0,1,0,-1.27,-1.27,0.,0.,1.,1.,5.,224.8,12.7,5.,224.8,      111P     71
0.,-1.27,0.,0.,0.,0.;                                                111P     72
126,2,2,0,0,0,0,-0.785398163397448,-0.785398163397448,               113P     73
-0.785398163397448,0.785398163397448,0.785398163397448,              113P     74
0.785398163397448,1.,0.707106781186543,1.,5.,224.8,0.,               113P     75
1.11022302462516D-15,224.8,0.,1.11022302462516D-15,219.8,0.,         113P     76
-0.785398163397448,0.785398163397448,0.,0.,0.;                       113P     77
126,1,1,0,0,1,0,0.,0.,1.27,1.27,1.,1.,0.,219.8,0.,0.,219.8,12.7,     115P     78
0.,1.27,0.,0.,0.;                                                    115P     79
126,1,1,0,0,1,0,14.7875,14.7875,18.55,18.55,1.,1.,42.625,224.8,      117P     80
0.,5.,224.8,0.,14.7875,18.55,0.,0.,0.;                               117P     81
126,2,2,0,0,0,0,-0.785398163397448,-0.785398163397448,               119P     82
-0.785398163397448,0.785398163397448,0.785398163397448,              119P     83
0.785398163397448,1.,0.707106781186545,1.,47.625,219.8,0.,           119P     84
47.625,224.8,0.,42.625,224.8,0.,-0.785398163397448,                  119P     85
0.785398163397448,0.,0.,0.;                                          119P     86
126,1,1,0,0,1,0,-8.7,-8.7,-1.54000000000001,-1.54000000000001,       121P     87
1.,1.,47.625,219.8,0.,47.625,148.2,0.,-8.7,-1.54000000000001,0.,     121P     88
0.,0.;                                                               121P     89
126,2,2,0,0,0,0,-0.785398163397452,-0.785398163397452,               123P     90
-0.785398163397452,0.785398163397447,0.785398163397447,              123P     91
0.785398163397447,1.,0.707106781186551,1.,52.625,143.2,0.,           123P     92
47.625,143.2,0.,47.625,148.2,0.,-0.785398163397452,                  123P     93
0.785398163397447,0.,0.,0.;                                          123P     94
126,1,1,0,0,1,0,-11.40625,-11.40625,3.46875,3.46875,1.,1.,           125P     95
52.625,143.2,0.,201.375,143.2,0.,-11.40625,3.46875,0.,0.,0.;         125P     96
126,2,2,0,0,0,0,-0.785398163397452,-0.785398163397452,               127P     97
-0.785398163397452,0.785398163397445,0.785398163397445,              127P     98
0.785398163397445,1.,0.707106781186539,1.,206.375,148.2,0.,          127P     99
206.375,143.2,0.,201.375,143.2,0.,-0.785398163397452,                127P    100
0.785398163397445,0.,0.,0.;                                          127P    101
126,1,1,0,0,1,0,-3.53999999999999,-3.53999999999999,3.62,3.62,       129P    102
1.,1.,206.375,148.2,0.,206.375,219.8,0.,-3.53999999999999,3.62,      129P    103
0.,0.,0.;                                                            129P    104
126,2,2,0,0,0,0,-0.785398163397448,-0.785398163397448,               131P    105
-0.785398163397448,0.785398163397448,0.785398163397448,              131P    106
0.785398163397448,1.,0.707106781186539,1.,211.375,224.8,0.,          131P    107
206.375,224.8,0.,206.375,219.8,0.,-0.785398163397448,                131P    108
0.785398163397448,0.,0.,0.;                                          131P    109
126,1,1,0,0,1,0,-5.85,-5.85,-2.0875,-2.0875,1.,1.,249.,224.8,0.,     133P    110
211.375,224.8,0.,-5.85,-2.0875,0.,0.,0.;                             133P    111
126,2,2,0,0,0,0,-0.785398163397448,-0.785398163397448,               135P    112
-0.785398163397448,0.785398163397448,0.785398163397448,              135P    113
0.785398163397448,1.,0.707106781186539,1.,254.,219.8,0.,254.,        135P    114
224.8,0.,249.,224.8,0.,-0.785398163397448,0.785398163397448,0.,      135P    115
0.,0.;                                                               135P    116
126,1,1,0,0,1,0,0.5,0.5,21.98,21.98,1.,1.,254.,5.,0.,254.,219.8,     137P    117
0.,0.5,21.98,0.,0.,0.;                                               137P    118
126,2,2,0,0,0,0,-0.785398163397448,-0.785398163397448,               139P    119
-0.785398163397448,0.785398163397448,0.785398163397448,              139P    120
0.785398163397448,1.,0.707106781186543,1.,249.,0.,0.,254.,0.,0.,     139P    121
254.,5.,0.,-0.785398163397448,0.785398163397448,0.,0.,0.;            139P    122
126,1,1,0,0,1,0,22.2,22.2,24.9,24.9,1.,1.,222.,                      141P    123
-4.30923033855966D-31,0.,249.,-4.83332592027638D-31,0.,22.2,         141P    124
24.9,0.,0.,0.;                                                       141P    125
126,2,2,0,0,0,0,-0.785398163397448,-0.785398163397448,               143P    126
-0.785398163397448,0.785398163397448,0.785398163397448,              143P    127
0.785398163397448,1.,0.707106781186543,1.,217.,5.,0.,217.,0.,0.,     143P    128
222.,0.,0.,-0.785398163397448,0.785398163397448,0.,0.,0.;            143P    129
126,1,1,0,0,1,0,-8.62,-8.62,-1.62,-1.62,1.,1.,217.,5.,0.,217.,       145P    130
75.,0.,-8.62,-1.62,0.,0.,0.;                                         145P    131
126,2,2,0,0,0,0,-0.785398163397448,-0.785398163397448,               147P    132
-0.785398163397448,0.785398163397448,0.785398163397448,              147P    133
0.785398163397448,1.,0.707106781186545,1.,212.,80.,0.,217.,80.,      147P    134
0.,217.,75.,0.,-0.785398163397448,0.785398163397448,0.,0.,0.;        147P    135
126,1,1,0,0,1,0,-12.31,-12.31,4.69,4.69,1.,1.,212.,80.,0.,42.,       149P    136
80.,0.,-12.31,4.69,0.,0.,0.;                                         149P    137
126,2,2,0,0,0,0,-0.785398163397447,-0.785398163397447,               151P    138
-0.785398163397447,0.785398163397449,0.785398163397449,              151P    139
0.785398163397449,1.,0.70710678118655,1.,37.,75.,0.,37.,80.,0.,      151P    140
42.,80.,0.,-0.785398163397447,0.785398163397449,0.,0.,0.;            151P    141
126,1,1,0,0,1,0,-1.38,-1.38,5.62,5.62,1.,1.,37.,75.,0.,37.,5.,       153P    142
0.,-1.38,5.62,0.,0.,0.;                                              153P    143
126,2,2,0,0,0,0,-0.785398163397448,-0.785398163397448,               155P    144
-0.785398163397448,0.785398163397448,0.785398163397448,              155P    145
0.785398163397448,1.,0.707106781186548,1.,32.,0.,0.,37.,0.,0.,       155P    146
37.,5.,0.,-0.785398163397448,0.785398163397448,0.,0.,0.;             155P    147
126,1,1,0,0,1,0,0.5,0.5,3.2,3.2,1.,1.,5.,-9.70547373549473D-33,      157P    148
0.,32.,-6.21150319071663D-32,0.,0.5,3.2,0.,0.,0.;                    157P    149
126,2,2,0,0,0,0,-0.785398163397448,-0.785398163397448,               159P    150
-0.785398163397448,0.785398163397448,0.785398163397448,              159P    151
0.785398163397448,1.,0.707106781186547,1.,0.,5.,0.,0.,0.,0.,5.,      159P    152
0.,0.,-0.785398163397448,0.785398163397448,0.,0.,0.;                 159P    153
126,1,1,0,0,1,0,2.5,2.5,23.98,23.98,1.,1.,8.853739122119D-31,        161P    154
219.8,0.,2.0140443862873D-32,5.,0.,2.5,23.98,0.,0.,0.;               161P    155
126,1,1,0,0,1,0,14.7875,14.7875,18.55,18.55,1.,1.,42.625,224.8,      163P    156
12.7,5.,224.8,12.7,14.7875,18.55,0.,0.,0.;                           163P    157
126,1,1,0,0,1,0,-0.635,-0.635,0.635,0.635,1.,1.,42.625,224.8,0.,     165P    158
42.625,224.8,12.7,-0.635,0.635,0.,0.,0.;                             165P    159
126,2,2,0,0,0,0,-0.785398163397448,-0.785398163397448,               167P    160
-0.785398163397448,0.785398163397448,0.785398163397448,              167P    161
0.785398163397448,1.,0.707106781186545,1.,42.625,224.8,12.7,         167P    162
47.625,224.8,12.7,47.625,219.8,12.7,-0.785398163397448,              167P    163
0.785398163397448,0.,0.,0.;                                          167P    164
126,1,1,0,0,1,0,-0.635,-0.635,0.635,0.635,1.,1.,47.625,219.8,        169P    165
12.7,47.625,219.8,0.,-0.635,0.635,0.,0.,0.;                          169P    166
126,2,2,0,0,0,0,-0.785398163397448,-0.785398163397448,               171P    167
-0.785398163397448,0.785398163397448,0.785398163397448,              171P    168
0.785398163397448,1.,0.707106781186539,1.,206.375,219.8,12.7,        171P    169
206.375,224.8,12.7,211.375,224.8,12.7,-0.785398163397448,            171P    170
0.785398163397448,0.,0.,0.;                                          171P    171
126,1,1,0,0,1,0,-0.635,-0.635,0.635,0.635,1.,1.,211.375,224.8,       173P    172
12.7,211.375,224.8,0.,-0.635,0.635,0.,0.,0.;                         173P    173
126,1,1,0,0,1,0,-0.635,-0.635,0.635,0.635,1.,1.,206.375,219.8,       175P    174
0.,206.375,219.8,12.7,-0.635,0.635,0.,0.,0.;                         175P    175
126,1,1,0,0,1,0,0.,0.,1.27,1.27,1.,1.,206.375,148.2,12.7,            177P    176
206.375,148.2,0.,0.,1.27,0.,0.,0.;                                   177P    177
126,1,1,0,0,1,0,-3.62,-3.62,3.53999999999999,3.53999999999999,       179P    178
1.,1.,206.375,219.8,12.7,206.375,148.2,12.7,-3.62,                   179P    179
3.53999999999999,0.,0.,0.;                                           179P    180
126,1,1,0,0,1,0,0.,0.,1.27,1.27,1.,1.,249.,224.8,0.,249.,224.8,      181P    181
12.7,0.,1.27,0.,0.,0.;                                               181P    182
126,2,2,0,0,0,0,-0.785398163397448,-0.785398163397448,               183P    183
-0.785398163397448,0.785398163397448,0.785398163397448,              183P    184
0.785398163397448,1.,0.707106781186539,1.,249.,224.8,12.7,254.,      183P    185
224.8,12.7,254.,219.8,12.7,-0.785398163397448,0.785398163397448,     183P    186
0.,0.,0.;                                                            183P    187
126,1,1,0,0,1,0,-1.27,-1.27,0.,0.,1.,1.,254.,219.8,12.7,254.,        185P    188
219.8,0.,-1.27,0.,0.,0.,0.;                                          185P    189
126,1,1,0,0,1,0,0.5,0.5,21.98,21.98,1.,1.,254.,5.,12.7,254.,         187P    190
219.8,12.7,0.5,21.98,0.,0.,0.;                                       187P    191
126,1,1,0,0,1,0,0.,0.,1.27,1.27,1.,1.,254.,5.,0.,254.,5.,12.7,       189P    192
0.,1.27,0.,0.,0.;                                                    189P    193
126,1,1,0,0,1,0,1.54000000000001,1.54000000000001,8.7,8.7,1.,1.,     191P    194
47.625,148.2,12.7,47.625,219.8,12.7,1.54000000000001,8.7,0.,0.,      191P    195
0.;                                                                  191P    196
126,1,1,0,0,1,0,-1.27,-1.27,0.,0.,1.,1.,47.625,148.2,0.,47.625,      193P    197
148.2,12.7,-1.27,0.,0.,0.,0.;                                        193P    198
126,1,1,0,0,1,0,-1.27,-1.27,0.,0.,1.,1.,0.,5.,12.7,0.,5.,0.,         195P    199
-1.27,0.,0.,0.,0.;                                                   195P    200
126,1,1,0,0,1,0,2.5,2.5,23.98,23.98,1.,1.,8.853739122119D-31,        197P    201
219.8,12.7,2.0140443862873D-32,5.,12.7,2.5,23.98,0.,0.,0.;           197P    202
126,1,1,0,0,1,0,0.,0.,1.27,1.27,1.,1.,42.,80.,0.,42.,80.,12.7,       199P    203
0.,1.27,0.,0.,0.;                                                    199P    204
126,2,2,0,0,0,0,-0.785398163397449,-0.785398163397449,               201P    205
-0.785398163397449,0.785398163397447,0.785398163397447,              201P    206
0.785398163397447,1.,0.70710678118655,1.,42.,80.,12.7,37.,80.,       201P    207
12.7,37.,75.,12.7,-0.785398163397449,0.785398163397447,0.,0.,0.;     201P    208
126,1,1,0,0,1,0,-1.27,-1.27,0.,0.,1.,1.,37.,75.,12.7,37.,75.,0.,     203P    209
-1.27,0.,0.,0.,0.;                                                   203P    210
126,1,1,0,0,1,0,-1.27,-1.27,0.,0.,1.,1.,212.,80.,12.7,212.,80.,      205P    211
0.,-1.27,0.,0.,0.,0.;                                                205P    212
126,1,1,0,0,1,0,-4.69,-4.69,12.31,12.31,1.,1.,42.,80.,12.7,212.,     207P    213
80.,12.7,-4.69,12.31,0.,0.,0.;                                       207P    214
126,1,1,0,0,1,0,0.,0.,1.27,1.27,1.,1.,217.,75.,0.,217.,75.,12.7,     209P    215
0.,1.27,0.,0.,0.;                                                    209P    216
126,2,2,0,0,0,0,-0.785398163397448,-0.785398163397448,               211P    217
-0.785398163397448,0.785398163397448,0.785398163397448,              211P    218
0.785398163397448,1.,0.707106781186545,1.,217.,75.,12.7,217.,        211P    219
80.,12.7,212.,80.,12.7,-0.785398163397448,0.785398163397448,0.,      211P    220
0.,0.;                                                               211P    221
126,1,1,0,0,1,0,-1.27,-1.27,0.,0.,1.,1.,217.,5.,12.7,217.,5.,0.,     213P    222
-1.27,0.,0.,0.,0.;                                                   213P    223
126,1,1,0,0,1,0,1.62,1.62,8.62,8.62,1.,1.,217.,75.,12.7,217.,5.,     215P    224
12.7,1.62,8.62,0.,0.,0.;                                             215P    225
126,1,1,0,0,1,0,-5.62,-5.62,1.38,1.38,1.,1.,37.,5.,12.7,37.,75.,     217P    226
12.7,-5.62,1.38,0.,0.,0.;                                            217P    227
126,1,1,0,0,1,0,0.,0.,1.27,1.27,1.,1.,37.,5.,0.,37.,5.,12.7,0.,      219P    228
1.27,0.,0.,0.;                                                       219P    229
126,2,2,0,0,0,0,-0.785398163397448,-0.785398163397448,               221P    230
-0.785398163397448,0.785398163397448,0.785398163397448,              221P    231
0.785398163397448,1.,0.707106781186543,1.,254.,5.,12.7,254.,0.,      221P    232
12.7,249.,0.,12.7,-0.785398163397448,0.785398163397448,0.,0.,0.;     221P    233
126,1,1,0,0,1,0,-1.27,-1.27,0.,0.,1.,1.,249.,0.,12.7,249.,0.,0.,     223P    234
-1.27,0.,0.,0.,0.;                                                   223P    235
126,1,1,0,0,1,0,22.2,22.2,24.9,24.9,1.,1.,222.,                      225P    236
-4.30923033855966D-31,12.7,249.,-4.83332592027638D-31,12.7,22.2,     225P    237
24.9,0.,0.,0.;                                                       225P    238
126,1,1,0,0,1,0,0.,0.,1.27,1.27,1.,1.,222.,0.,0.,222.,0.,12.7,       227P    239
0.,1.27,0.,0.,0.;                                                    227P    240
126,2,2,0,0,0,0,-0.785398163397448,-0.785398163397448,               229P    241
-0.785398163397448,0.785398163397448,0.785398163397448,              229P    242
0.785398163397448,1.,0.707106781186543,1.,222.,0.,12.7,217.,0.,      229P    243
12.7,217.,5.,12.7,-0.785398163397448,0.785398163397448,0.,0.,0.;     229P    244
126,2,2,0,0,0,0,-0.785398163397448,-0.785398163397448,               231P    245
-0.785398163397448,0.785398163397448,0.785398163397448,              231P    246
0.785398163397448,1.,0.707106781186548,1.,37.,5.,12.7,37.,0.,        231P    247
12.7,32.,0.,12.7,-0.785398163397448,0.785398163397448,0.,0.,0.;      231P    248
126,1,1,0,0,1,0,-1.27,-1.27,0.,0.,1.,1.,32.,0.,12.7,32.,0.,0.,       233P    249
-1.27,0.,0.,0.,0.;                                                   233P    250
126,1,1,0,0,1,0,0.5,0.5,3.2,3.2,1.,1.,5.,-9.70547373549473D-33,      235P    251
12.7,32.,-6.21150319071663D-32,12.7,0.5,3.2,0.,0.,0.;                235P    252
126,1,1,0,0,1,0,0.,0.,1.27,1.27,1.,1.,5.,0.,0.,5.,0.,12.7,0.,        237P    253
1.27,0.,0.,0.;                                                       237P    254
126,2,2,0,0,0,0,-0.785398163397448,-0.785398163397448,               239P    255
-0.785398163397448,0.785398163397448,0.785398163397448,              239P    256
0.785398163397448,1.,0.707106781186547,1.,5.,0.,12.7,0.,0.,12.7,     239P    257
0.,5.,12.7,-0.785398163397448,0.785398163397448,0.,0.,0.;            239P    258
126,1,1,0,0,1,0,-5.85,-5.85,-2.0875,-2.0875,1.,1.,249.,224.8,        241P    259
12.7,211.375,224.8,12.7,-5.85,-2.0875,0.,0.,0.;                      241P    260
126,2,2,0,0,0,0,-0.785398163397447,-0.785398163397447,               243P    261
-0.785398163397447,0.785398163397452,0.785398163397452,              243P    262
0.785398163397452,1.,0.707106781186551,1.,47.625,148.2,12.7,         243P    263
47.625,143.2,12.7,52.625,143.2,12.7,-0.785398163397447,              243P    264
0.785398163397452,0.,0.,0.;                                          243P    265
126,1,1,0,0,1,0,0.,0.,1.27,1.27,1.,1.,52.625,143.2,12.7,52.625,      245P    266
143.2,0.,0.,1.27,0.,0.,0.;                                           245P    267
126,1,1,0,0,1,0,-3.46875,-3.46875,11.40625,11.40625,1.,1.,           247P    268
201.375,143.2,12.7,52.625,143.2,12.7,-3.46875,11.40625,0.,0.,0.;     247P    269
126,1,1,0,0,1,0,-1.27,-1.27,0.,0.,1.,1.,201.375,143.2,0.,            249P    270
201.375,143.2,12.7,-1.27,0.,0.,0.,0.;                                249P    271
126,2,2,0,0,0,0,-0.785398163397445,-0.785398163397445,               251P    272
-0.785398163397445,0.785398163397452,0.785398163397452,              251P    273
0.785398163397452,1.,0.707106781186539,1.,201.375,143.2,12.7,        251P    274
206.375,143.2,12.7,206.375,148.2,12.7,-0.785398163397445,            251P    275
0.785398163397452,0.,0.,0.;                                          251P    276
128,1,2,1,2,0,0,0,0,0,0.,0.,2.54,2.54,-0.785398163397448,            253P    277
-0.785398163397448,-0.785398163397448,0.785398163397448,             253P    278
0.785398163397448,0.785398163397448,1.,1.,0.707106781186548,         253P    279
0.707106781186548,1.,1.,5.,224.8,12.7,5.,224.8,0.,                   253P    280
1.66533453693773D-15,224.8,12.7,1.66533453693773D-15,224.8,0.,       253P    281
4.9960036108132D-15,219.8,12.7,4.9960036108132D-15,219.8,0.,0.,      253P    282
2.54,-0.785398163397448,0.785398163397448;                           253P    283
128,1,1,1,1,0,0,1,0,0,-12.701,-12.701,12.701,12.701,-12.241,         255P    284
-12.241,10.241,10.241,1.,1.,1.,1.,254.01,-0.00999999999999446,       255P    285
0.,-0.00999999999999446,-0.00999999999999446,0.,254.01,224.81,       255P    286
0.,-0.00999999999999446,224.81,0.,-12.701,12.701,-12.241,10.241;     255P    287
128,1,1,1,1,0,0,1,0,0,21.1365,21.1365,24.901,24.901,-0.001,          257P    288
-0.001,1.271,1.271,1.,1.,1.,1.,42.635,224.8,-0.01,                   257P    289
4.98999999999999,224.8,-0.01,42.635,224.8,12.71,                     257P    290
4.98999999999999,224.8,12.71,21.1365,24.901,-0.001,1.271;            257P    291
128,1,2,1,2,0,0,0,0,0,-1.27,-1.27,1.27,1.27,-0.785398163397448,      259P    292
-0.785398163397448,-0.785398163397448,0.785398163397448,             259P    293
0.785398163397448,0.785398163397448,1.,1.,0.707106781186548,         259P    294
0.707106781186548,1.,1.,42.625,224.8,0.,42.625,224.8,12.7,           259P    295
47.625,224.8,0.,47.625,224.8,12.7,47.625,219.8,0.,47.625,219.8,      259P    296
12.7,-1.27,1.27,-0.785398163397448,0.785398163397448;                259P    297
128,1,2,1,2,0,0,0,0,0,-1.27,-1.27,1.27,1.27,-0.785398163397448,      261P    298
-0.785398163397448,-0.785398163397448,0.785398163397448,             261P    299
0.785398163397448,0.785398163397448,1.,1.,0.707106781186548,         261P    300
0.707106781186548,1.,1.,211.375,224.8,12.7,211.375,224.8,0.,         261P    301
206.375,224.8,12.7,206.375,224.8,0.,206.375,219.8,12.7,206.375,      261P    302
219.8,0.,-1.27,1.27,-0.785398163397448,0.785398163397448;            261P    303
128,1,1,1,1,0,0,1,0,0,2.499,2.499,9.66099999999999,                  263P    304
9.66099999999999,-0.001,-0.001,1.271,1.271,1.,1.,1.,1.,206.375,      263P    305
148.19,12.71,206.375,219.81,12.71,206.375,148.19,                    263P    306
-0.0099999999999989,206.375,219.81,-0.0099999999999989,2.499,        263P    307
9.66099999999999,-0.001,1.271;                                       263P    308
128,1,2,1,2,0,0,0,0,0,-2.54,-2.54,0.,0.,-0.785398163397448,          265P    309
-0.785398163397448,-0.785398163397448,0.785398163397448,             265P    310
0.785398163397448,0.785398163397448,1.,1.,0.707106781186548,         265P    311
0.707106781186548,1.,1.,249.,224.8,0.,249.,224.8,12.7,254.,          265P    312
224.8,0.,254.,224.8,12.7,254.,219.8,0.,254.,219.8,12.7,-2.54,0.,     265P    313
-0.785398163397448,0.785398163397448;                                265P    314
128,1,1,1,1,0,0,1,0,0,0.499,0.499,21.981,21.981,-0.001,-0.001,       267P    315
1.271,1.271,1.,1.,1.,1.,254.,4.99,-0.01,254.,219.81,-0.01,254.,      267P    316
4.99,12.71,254.,219.81,12.71,0.499,21.981,-0.001,1.271;              267P    317
128,1,1,1,1,0,0,1,0,0,0.499,0.499,7.66099999999999,                  269P    318
7.66099999999999,-0.001,-0.001,1.271,1.271,1.,1.,1.,1.,47.625,       269P    319
219.81,12.71,47.625,148.19,12.71,47.625,219.81,                      269P    320
-0.0099999999999989,47.625,148.19,-0.0099999999999989,0.499,         269P    321
7.66099999999999,-0.001,1.271;                                       269P    322
128,1,1,1,1,0,0,1,0,0,2.499,2.499,23.981,23.981,-0.001,-0.001,       271P    323
1.271,1.271,1.,1.,1.,1.,8.85414193099625D-31,219.81,-0.01,           271P    324
2.01001629751472D-32,4.98999999999999,-0.01,                         271P    325
8.85414193099625D-31,219.81,12.71,2.01001629751472D-32,              271P    326
4.98999999999999,12.71,2.499,23.981,-0.001,1.271;                    271P    327
128,1,2,1,2,0,0,0,0,0,0.,0.,2.54,2.54,-0.785398163397449,            273P    328
-0.785398163397449,-0.785398163397449,0.785398163397447,             273P    329
0.785398163397447,0.785398163397447,1.,1.,0.707106781186548,         273P    330
0.707106781186548,1.,1.,42.,80.,0.,42.,80.,12.7,37.,80.,0.,37.,      273P    331
80.,12.7,37.,75.,0.,37.,75.,12.7,0.,2.54,-0.785398163397449,         273P    332
0.785398163397447;                                                   273P    333
128,1,1,1,1,0,0,1,0,0,-0.880999999999999,-0.880999999999999,         275P    334
16.121,16.121,-0.001,-0.001,1.271,1.271,1.,1.,1.,1.,41.99,80.,       275P    335
-0.01,212.01,80.,-0.01,41.99,80.,12.71,212.01,80.,12.71,             275P    336
-0.880999999999999,16.121,-0.001,1.271;                              275P    337
128,1,2,1,2,0,0,0,0,0,0.,0.,2.54,2.54,-0.785398163397448,            277P    338
-0.785398163397448,-0.785398163397448,0.785398163397448,             277P    339
0.785398163397448,0.785398163397448,1.,1.,0.707106781186548,         277P    340
0.707106781186548,1.,1.,217.,75.,0.,217.,75.,12.7,217.,80.,0.,       277P    341
217.,80.,12.7,212.,80.,0.,212.,80.,12.7,0.,2.54,                     277P    342
-0.785398163397448,0.785398163397448;                                277P    343
128,1,1,1,1,0,0,1,0,0,-1.501,-1.501,5.501,5.501,-0.001,-0.001,       279P    344
1.271,1.271,1.,1.,1.,1.,217.,75.01,-0.01,217.,4.99,-0.01,217.,       279P    345
75.01,12.71,217.,4.99,12.71,-1.501,5.501,-0.001,1.271;               279P    346
128,1,1,1,1,0,0,1,0,0,0.499,0.499,7.501,7.501,-0.001,-0.001,         281P    347
1.271,1.271,1.,1.,1.,1.,37.,4.99,-0.01,37.,75.01,-0.01,37.,4.99,     281P    348
12.71,37.,75.01,12.71,0.499,7.501,-0.001,1.271;                      281P    349
128,1,2,1,2,0,0,0,0,0,0.,0.,2.54,2.54,-0.785398163397448,            283P    350
-0.785398163397448,-0.785398163397448,0.785398163397448,             283P    351
0.785398163397448,0.785398163397448,1.,1.,0.707106781186548,         283P    352
0.707106781186548,1.,1.,249.,4.44089209850063D-15,12.7,249.,         283P    353
4.44089209850063D-15,0.,254.,1.11022302462516D-15,12.7,254.,         283P    354
1.11022302462516D-15,0.,254.,5.,12.7,254.,5.,0.,0.,2.54,             283P    355
-0.785398163397448,0.785398163397448;                                283P    356
128,1,1,1,1,0,0,1,0,0,1.879,1.879,4.581,4.581,-0.001,-0.001,         285P    357
1.271,1.271,1.,1.,1.,1.,221.99,-4.30903622908495D-31,-0.01,          285P    358
249.01,-4.83352002975109D-31,-0.01,221.99,-4.30903622908495D-31,     285P    359
12.71,249.01,-4.83352002975109D-31,12.71,1.879,4.581,-0.001,         285P    360
1.271;                                                               285P    361
128,1,2,1,2,0,0,0,0,0,0.,0.,2.54,2.54,-0.785398163397448,            287P    362
-0.785398163397448,-0.785398163397448,0.785398163397448,             287P    363
0.785398163397448,0.785398163397448,1.,1.,0.707106781186548,         287P    364
0.707106781186548,1.,1.,217.,5.,12.7,217.,5.,0.,217.,                287P    365
1.11022302462516D-15,12.7,217.,1.11022302462516D-15,0.,222.,         287P    366
4.44089209850063D-15,12.7,222.,4.44089209850063D-15,0.,0.,2.54,      287P    367
-0.785398163397448,0.785398163397448;                                287P    368
128,1,2,1,2,0,0,0,0,0,0.,0.,2.54,2.54,-0.785398163397448,            289P    369
-0.785398163397448,-0.785398163397448,0.785398163397448,             289P    370
0.785398163397448,0.785398163397448,1.,1.,0.707106781186548,         289P    371
0.707106781186548,1.,1.,32.,-1.66533453693773D-15,12.7,32.,          289P    372
-1.66533453693773D-15,0.,37.,1.11022302462516D-15,12.7,37.,          289P    373
1.11022302462516D-15,0.,37.,5.,12.7,37.,5.,0.,0.,2.54,               289P    374
-0.785398163397448,0.785398163397448;                                289P    375
128,1,1,1,1,0,0,1,0,0,0.499,0.499,3.201,3.201,-0.001,-0.001,         291P    376
1.271,1.271,1.,1.,1.,1.,4.99,-9.68606278802374D-33,-0.01,32.01,      291P    377
-6.21344428546372D-32,-0.01,4.99,-9.68606278802374D-33,12.71,        291P    378
32.01,-6.21344428546372D-32,12.71,0.499,3.201,-0.001,1.271;          291P    379
128,1,2,1,2,0,0,0,0,0,0.,0.,2.54,2.54,-0.785398163397448,            293P    380
-0.785398163397448,-0.785398163397448,0.785398163397448,             293P    381
0.785398163397448,0.785398163397448,1.,1.,0.707106781186548,         293P    382
0.707106781186548,1.,1.,0.,5.,12.7,0.,5.,0.,                         293P    383
1.11022302462516D-15,1.11022302462516D-15,12.7,                      293P    384
1.11022302462516D-15,1.11022302462516D-15,0.,5.,0.,12.7,5.,0.,       293P    385
0.,0.,2.54,-0.785398163397448,0.785398163397448;                     293P    386
128,1,1,1,1,0,0,1,0,0,0.499,0.499,4.2635,4.2635,-0.001,-0.001,       295P    387
1.271,1.271,1.,1.,1.,1.,249.01,224.8,-0.01,211.365,224.8,-0.01,      295P    388
249.01,224.8,12.71,211.365,224.8,12.71,0.499,4.2635,-0.001,          295P    389
1.271;                                                               295P    390
128,1,2,1,2,0,0,0,0,0,0.,0.,2.54,2.54,-0.785398163397452,            297P    391
-0.785398163397452,-0.785398163397452,0.785398163397447,             297P    392
0.785398163397447,0.785398163397447,1.,1.,0.707106781186547,         297P    393
0.707106781186547,1.,1.,52.625,143.2,12.7,52.625,143.2,0.,           297P    394
47.625,143.2,12.7,47.625,143.2,0.,47.625,148.2,12.7,47.625,          297P    395
148.2,0.,0.,2.54,-0.785398163397452,0.785398163397447;               297P    396
128,1,1,1,1,0,0,1,0,0,0.499,0.499,15.376,15.376,-0.001,-0.001,       299P    397
1.271,1.271,1.,1.,1.,1.,52.615,143.2,12.71,201.385,143.2,12.71,      299P    398
52.615,143.2,-0.0099999999999989,201.385,143.2,                      299P    399
-0.0099999999999989,0.499,15.376,-0.001,1.271;                       299P    400
128,1,2,1,2,0,0,0,0,0,0.,0.,2.54,2.54,-0.785398163397452,            301P    401
-0.785398163397452,-0.785398163397452,0.785398163397445,             301P    402
0.785398163397445,0.785398163397445,1.,1.,0.707106781186548,         301P    403
0.707106781186548,1.,1.,206.375,148.2,12.7,206.375,148.2,0.,         301P    404
206.375,143.2,12.7,206.375,143.2,0.,201.375,143.2,12.7,201.375,      301P    405
143.2,0.,0.,2.54,-0.785398163397452,0.785398163397445;               301P    406
128,1,1,1,1,0,0,1,0,0,-12.701,-12.701,12.701,12.701,-12.241,         303P    407
-12.241,10.241,10.241,1.,1.,1.,1.,-0.00999999999999446,              303P    408
-0.00999999999999446,12.7,254.01,-0.00999999999999446,12.7,          303P    409
-0.00999999999999446,224.81,12.7,254.01,224.81,12.7,-12.701,         303P    410
12.701,-12.241,10.241;                                               303P    411
502,48,8.853739122119D-31,219.8,12.7,5.,224.8,12.7,5.,224.8,0.,      305P    412
8.853739122119D-31,219.8,0.,42.625,224.8,0.,47.625,219.8,0.,         305P    413
47.625,148.2,0.,52.625,143.2,0.,201.375,143.2,0.,206.375,148.2,      305P    414
0.,206.375,219.8,0.,211.375,224.8,0.,249.,224.8,0.,254.,219.8,       305P    415
0.,254.,5.,0.,249.,-4.83332592027638D-31,0.,222.,                    305P    416
-4.30923033855966D-31,0.,217.,5.,0.,217.,75.,0.,212.,80.,0.,42.,     305P    417
80.,0.,37.,75.,0.,37.,5.,0.,32.,-6.21150319071663D-32,0.,5.,         305P    418
-9.70547373549473D-33,0.,2.0140443862873D-32,5.,0.,42.625,224.8,     305P    419
12.7,47.625,219.8,12.7,206.375,219.8,12.7,211.375,224.8,12.7,        305P    420
206.375,148.2,12.7,249.,224.8,12.7,254.,219.8,12.7,254.,5.,12.7,     305P    421
47.625,148.2,12.7,2.0140443862873D-32,5.,12.7,42.,80.,12.7,37.,      305P    422
75.,12.7,212.,80.,12.7,217.,75.,12.7,217.,5.,12.7,37.,5.,12.7,       305P    423
249.,-4.83332592027638D-31,12.7,222.,-4.30923033855966D-31,12.7,     305P    424
32.,-6.21150319071663D-32,12.7,5.,-9.70547373549473D-33,12.7,        305P    425
52.625,143.2,12.7,201.375,143.2,12.7;                                305P    426
504,72,109,305,1,305,2,111,305,2,305,3,113,305,3,305,4,115,305,      307P    427
4,305,1,117,305,5,305,3,119,305,6,305,5,121,305,6,305,7,123,305,     307P    428
8,305,7,125,305,8,305,9,127,305,10,305,9,129,305,10,305,11,131,      307P    429
305,12,305,11,133,305,13,305,12,135,305,14,305,13,137,305,15,        307P    430
305,14,139,305,16,305,15,141,305,17,305,16,143,305,18,305,17,        307P    431
145,305,18,305,19,147,305,20,305,19,149,305,20,305,21,151,305,       307P    432
22,305,21,153,305,22,305,23,155,305,24,305,23,157,305,25,305,24,     307P    433
159,305,26,305,25,161,305,4,305,26,163,305,27,305,2,165,305,5,       307P    434
305,27,167,305,27,305,28,169,305,28,305,6,171,305,29,305,30,173,     307P    435
305,30,305,12,175,305,11,305,29,177,305,31,305,10,179,305,29,        307P    436
305,31,181,305,13,305,32,183,305,32,305,33,185,305,33,305,14,        307P    437
187,305,34,305,33,189,305,15,305,34,191,305,35,305,28,193,305,7,     307P    438
305,35,195,305,36,305,26,197,305,1,305,36,199,305,21,305,37,201,     307P    439
305,37,305,38,203,305,38,305,22,205,305,39,305,20,207,305,37,        307P    440
305,39,209,305,19,305,40,211,305,40,305,39,213,305,41,305,18,        307P    441
215,305,40,305,41,217,305,42,305,38,219,305,23,305,42,221,305,       307P    442
34,305,43,223,305,43,305,16,225,305,44,305,43,227,305,17,305,44,     307P    443
229,305,44,305,41,231,305,42,305,45,233,305,45,305,24,235,305,       307P    444
46,305,45,237,305,25,305,46,239,305,46,305,36,241,305,32,305,30,     307P    445
243,305,35,305,47,245,305,47,305,8,247,305,48,305,47,249,305,9,      307P    446
305,48,251,305,48,305,31;                                            307P    447
406,1,5HBody1;                                                       309P    448
314,70.1960784313725,70.1960784313725,70.1960784313725,15HSurfac     311P    449
e - Matte;                                                           311P    450
314,74.9019607843137,74.9019607843137,74.9019607843137,7HDefault     313P    451
;                                                                    313P    452
S      1G      3D    314P    452                                        T      1
